<?xml version="1.0" encoding="UTF-8" standalone="no"?>
<!DOCTYPE svg PUBLIC "-//W3C//DTD SVG 1.1//EN" "http://www.w3.org/Graphics/SVG/1.1/DTD/svg11.dtd">
<svg width="100%" height="100%" viewBox="0 0 260 140" version="1.1" xmlns="http://www.w3.org/2000/svg" xmlns:xlink="http://www.w3.org/1999/xlink" xml:space="preserve" xmlns:serif="http://www.serif.com/" style="fill-rule:evenodd;clip-rule:evenodd;stroke-linejoin:round;stroke-miterlimit:2;">
    <g transform="matrix(1,0,0,1,-8977.63,-585.53)">
        <g id="Artboard4" transform="matrix(0.473107,0,0,0.409433,6865.57,965.847)">
            <rect x="4464.26" y="-928.886" width="549.559" height="341.936" style="fill:none;"/>
            <g transform="matrix(-0.687101,1.47537e-32,-1.66102e-32,0.793957,6734.38,-1835.23)">
                <path d="M3277.66,1353.81C3277.66,1345.05 3270.55,1337.94 3261.79,1337.94L3193.99,1337.94C3185.23,1337.94 3178.11,1345.05 3178.11,1353.81C3178.11,1362.57 3185.23,1369.68 3193.99,1369.68L3261.79,1369.68C3270.55,1369.68 3277.66,1362.57 3277.66,1353.81ZM3273.43,1353.81C3273.43,1360.24 3268.21,1365.45 3261.79,1365.45L3193.99,1365.45C3187.56,1365.45 3182.35,1360.24 3182.35,1353.81C3182.35,1347.39 3187.56,1342.17 3193.99,1342.17L3261.79,1342.17C3268.21,1342.17 3273.43,1347.39 3273.43,1353.81Z"/>
            </g>
            <g transform="matrix(-0.687101,1.47537e-32,-1.66102e-32,0.793957,6851.17,-1914.2)">
                <path d="M3277.66,1353.81C3277.66,1345.05 3270.55,1337.94 3261.79,1337.94L3193.99,1337.94C3185.23,1337.94 3178.11,1345.05 3178.11,1353.81C3178.11,1362.57 3185.23,1369.68 3193.99,1369.68L3261.79,1369.68C3270.55,1369.68 3277.66,1362.57 3277.66,1353.81ZM3273.43,1353.81C3273.43,1360.24 3268.21,1365.45 3261.79,1365.45L3193.99,1365.45C3187.56,1365.45 3182.35,1360.24 3182.35,1353.81C3182.35,1347.39 3187.56,1342.17 3193.99,1342.17L3261.79,1342.17C3268.21,1342.17 3273.43,1347.39 3273.43,1353.81Z"/>
            </g>
            <g transform="matrix(-0.687101,1.47537e-32,-1.66102e-32,0.793957,6851.17,-1757.5)">
                <path d="M3277.66,1353.81C3277.66,1345.05 3270.55,1337.94 3261.79,1337.94L3193.99,1337.94C3185.23,1337.94 3178.11,1345.05 3178.11,1353.81C3178.11,1362.57 3185.23,1369.68 3193.99,1369.68L3261.79,1369.68C3270.55,1369.68 3277.66,1362.57 3277.66,1353.81ZM3273.43,1353.81C3273.43,1360.24 3268.21,1365.45 3261.79,1365.45L3193.99,1365.45C3187.56,1365.45 3182.35,1360.24 3182.35,1353.81C3182.35,1347.39 3187.56,1342.17 3193.99,1342.17L3261.79,1342.17C3268.21,1342.17 3273.43,1347.39 3273.43,1353.81Z"/>
            </g>
            <g transform="matrix(-1.885e-17,-0.355719,-0.692747,4.90153e-17,5442.67,399.958)">
                <path d="M3266.96,991.034C3266.96,989.875 3264.84,988.935 3262.23,988.935C3259.62,988.935 3257.51,989.875 3257.51,991.034C3257.51,1009.82 3266.85,1022.35 3281.52,1031.15C3303.45,1044.3 3337.55,1049.18 3371.81,1053.95C3404.15,1058.44 3436.64,1062.82 3457.33,1075.24C3471.08,1083.49 3479.49,1095.26 3479.49,1112.85C3479.49,1114.01 3481.61,1114.95 3484.22,1114.95C3486.82,1114.95 3488.94,1114.01 3488.94,1112.85C3488.94,1094.07 3479.6,1081.54 3464.93,1072.74C3443,1059.59 3408.89,1054.7 3374.64,1049.94C3342.3,1045.44 3309.81,1041.07 3289.12,1028.65C3275.37,1020.4 3266.96,1008.63 3266.96,991.034Z"/>
            </g>
            <g transform="matrix(-7.11314e-17,0.354462,-0.695208,1.5769e-16,5445.11,-1916.82)">
                <path d="M3257.49,991.034C3257.49,989.88 3259.61,988.942 3262.23,988.942C3264.85,988.942 3266.97,989.88 3266.97,991.034C3266.97,1008.63 3275.39,1020.41 3289.14,1028.66C3309.83,1041.07 3342.32,1045.45 3374.65,1049.95C3408.91,1054.71 3443.02,1059.59 3464.95,1072.75C3479.62,1081.55 3488.96,1094.07 3488.96,1112.85C3488.96,1114.01 3486.83,1114.95 3484.22,1114.95C3481.6,1114.95 3479.47,1114.01 3479.47,1112.85C3479.47,1095.25 3471.06,1083.48 3457.31,1075.23C3436.62,1062.81 3404.13,1058.44 3371.8,1053.94C3337.54,1049.17 3303.43,1044.29 3281.5,1031.14C3266.83,1022.34 3257.49,1009.81 3257.49,991.034Z"/>
            </g>
            <g transform="matrix(1.18056e-19,0.00222784,-1.68488,1.19214e-16,6425.91,-767.747)">
                <path d="M2004.87,987.938C2004.87,987.144 2568.28,986.5 3262.23,986.5C3956.19,986.5 4519.59,987.144 4519.59,987.938C4519.59,1078.89 4741.58,1019.05 4741.58,1110C4741.58,1110.79 4178.17,1111.44 3484.22,1111.44C2790.26,1111.44 2226.86,1110.79 2226.86,1110C2226.86,1019.05 2004.87,1078.89 2004.87,987.938Z"/>
            </g>
            <g transform="matrix(6.23941,1.14958e-31,2.95823e-31,8.4052,-13457.8,-7724.72)">
                <path d="M2938.16,833.244C2938.16,833.06 2938.34,832.911 2938.55,832.911C2938.77,832.911 2938.94,833.06 2938.94,833.244L2938.94,836.644C2938.94,836.828 2938.77,836.977 2938.55,836.977L2922.51,836.977C2922.29,836.977 2922.12,836.828 2922.12,836.644L2922.12,820.6C2922.12,820.416 2922.29,820.267 2922.51,820.267L2938.55,820.267C2938.77,820.267 2938.94,820.416 2938.94,820.6L2938.94,827.277C2938.94,827.461 2938.77,827.611 2938.55,827.611C2938.34,827.611 2938.16,827.461 2938.16,827.277L2938.16,820.933L2922.9,820.933L2922.9,836.311L2938.16,836.311L2938.16,833.244Z"/>
            </g>
            <g transform="matrix(-1.32858,0.672857,0.593316,1.56423,16901.2,-6992.33)">
                <path d="M9105.54,98.113C9107.77,99.249 9110.52,98.395 9111.68,96.206C9112.83,94.017 9111.96,91.317 9109.73,90.18L9063.88,65.101C9061.65,63.965 9058.9,64.819 9057.74,67.008C9056.58,69.197 9057.45,71.897 9059.68,73.034L9105.54,98.113Z"/>
            </g>
            <g transform="matrix(2.11369,0,0,2.4424,-14526.5,-932.534)">
                <path d="M9139.69,89.875C9139.42,90.114 9139,90.084 9138.76,89.807C9138.52,89.531 9138.55,89.113 9138.83,88.874C9139.21,88.543 9139.62,88.229 9140.05,87.933C9140.35,87.726 9140.76,87.802 9140.97,88.103C9141.18,88.404 9141.1,88.817 9140.8,89.024C9140.41,89.292 9140.04,89.576 9139.69,89.875ZM9143.26,87.643C9142.93,87.795 9142.53,87.649 9142.38,87.317C9142.23,86.985 9142.38,86.592 9142.71,86.44C9143.61,86.029 9144.56,85.673 9145.54,85.372C9145.89,85.265 9146.26,85.462 9146.37,85.811C9146.47,86.161 9146.28,86.531 9145.93,86.638C9145,86.922 9144.1,87.257 9143.26,87.643ZM9148.71,85.954C9148.35,86.022 9148,85.786 9147.94,85.427C9147.87,85.068 9148.1,84.722 9148.46,84.653C9149.44,84.467 9150.44,84.329 9151.44,84.239C9151.8,84.206 9152.12,84.475 9152.16,84.839C9152.19,85.203 9151.92,85.525 9151.56,85.557C9150.6,85.643 9149.65,85.775 9148.71,85.954ZM9154.43,85.438C9154.06,85.436 9153.77,85.137 9153.77,84.772C9153.77,84.406 9154.07,84.112 9154.44,84.115C9155.46,84.122 9156.47,84.182 9157.44,84.293C9157.8,84.335 9158.06,84.663 9158.02,85.026C9157.98,85.389 9157.65,85.65 9157.29,85.608C9156.36,85.502 9155.4,85.446 9154.43,85.438ZM9160.09,86.109C9159.74,86.02 9159.52,85.66 9159.61,85.306C9159.7,84.952 9160.06,84.736 9160.42,84.825C9161.47,85.089 9162.44,85.425 9163.31,85.831C9163.64,85.986 9163.78,86.38 9163.63,86.711C9163.47,87.042 9163.08,87.185 9162.75,87.03C9161.95,86.658 9161.06,86.351 9160.09,86.109ZM9165,88.525C9164.74,88.27 9164.74,87.851 9164.99,87.589C9165.25,87.327 9165.66,87.32 9165.93,87.575C9166.33,87.97 9166.68,88.397 9166.95,88.855C9167.14,89.168 9167.03,89.575 9166.72,89.762C9166.41,89.949 9166,89.846 9165.81,89.533C9165.6,89.172 9165.33,88.836 9165,88.525Z" style="fill:rgb(255,48,26);"/>
            </g>
        </g>
    </g>
</svg>
