<?xml version="1.0" encoding="UTF-8" standalone="no"?>
<!DOCTYPE svg PUBLIC "-//W3C//DTD SVG 1.1//EN" "http://www.w3.org/Graphics/SVG/1.1/DTD/svg11.dtd">
<svg width="100%" height="100%" viewBox="0 0 260 140" version="1.1" xmlns="http://www.w3.org/2000/svg" xmlns:xlink="http://www.w3.org/1999/xlink" xml:space="preserve" xmlns:serif="http://www.serif.com/" style="fill-rule:evenodd;clip-rule:evenodd;stroke-linecap:round;stroke-linejoin:round;stroke-miterlimit:1.5;">
    <g transform="matrix(1,0,0,1,-6024.53,0)">
        <g id="Artboard4" transform="matrix(0.473107,0,0,0.409433,3912.46,380.317)">
            <rect x="4464.26" y="-928.886" width="549.559" height="341.936" style="fill:none;"/>
            <g transform="matrix(3.1744,0,0,3.43042,-8689.8,-169.191)">
                <g transform="matrix(0.526171,0,0,0.432482,2104.58,-471.007)">
                    <g transform="matrix(0.50988,0,0,0.663311,2568.18,376.259)">
                        <circle cx="2828.2" cy="383.181" r="35.384" style="fill:none;stroke:rgb(35,31,32);stroke-width:4.23px;"/>
                    </g>
                    <g transform="matrix(0.689275,0,0,0.89669,1990.28,-112.59)">
                        <rect x="2922.51" y="820.6" width="16.044" height="16.044" style="fill:rgb(0,233,218);"/>
                    </g>
                </g>
                <g transform="matrix(0.526171,0,0,0.432482,2194.69,-471.007)">
                    <g transform="matrix(0.50988,0,0,0.663311,2568.18,376.259)">
                        <circle cx="2828.2" cy="383.181" r="35.384" style="fill:none;stroke:rgb(35,31,32);stroke-width:4.23px;"/>
                    </g>
                    <g transform="matrix(0.689275,0,0,0.89669,1990.28,-112.59)">
                        <rect x="2922.51" y="820.6" width="16.044" height="16.044" style="fill:rgb(255,96,0);"/>
                    </g>
                </g>
                <g transform="matrix(0.526171,0,0,0.432482,2104.58,-443.037)">
                    <g transform="matrix(0.50988,0,0,0.663311,2568.18,376.259)">
                        <circle cx="2828.2" cy="383.181" r="35.384" style="fill:none;stroke:rgb(35,31,32);stroke-width:4.23px;"/>
                    </g>
                    <g transform="matrix(0.689275,0,0,0.89669,1990.28,-112.59)">
                        <rect x="2922.51" y="820.6" width="16.044" height="16.044" style="fill:rgb(0,233,218);"/>
                    </g>
                </g>
                <g transform="matrix(0.526171,0,0,0.432482,2104.58,-415.038)">
                    <g transform="matrix(0.50988,0,0,0.663311,2568.18,376.259)">
                        <circle cx="2828.2" cy="383.181" r="35.384" style="fill:none;stroke:rgb(35,31,32);stroke-width:4.23px;"/>
                    </g>
                    <g transform="matrix(0.689275,0,0,0.89669,1990.28,-112.59)">
                        <rect x="2922.51" y="820.6" width="16.044" height="16.044" style="fill:rgb(0,233,218);"/>
                    </g>
                </g>
                <g transform="matrix(0.101199,0,0,0.108209,3976.1,-239.863)">
                    <circle cx="2828.2" cy="383.181" r="35.384" style="fill:none;stroke:rgb(35,31,32);stroke-width:11.22px;"/>
                </g>
                <g transform="matrix(0.101199,0,0,0.108209,3976.1,-212.107)">
                    <circle cx="2828.2" cy="383.181" r="35.384" style="fill:none;stroke:rgb(35,31,32);stroke-width:11.22px;"/>
                </g>
                <g transform="matrix(0.101199,0,0,0.108209,3976.1,-183.607)">
                    <circle cx="2828.2" cy="383.181" r="35.384" style="fill:none;stroke:rgb(35,31,32);stroke-width:11.22px;"/>
                </g>
                <g transform="matrix(0.268284,0,0,0.28687,3293.85,-572.853)">
                    <path d="M3275.54,1403.81C3275.54,1411.4 3269.38,1417.57 3261.79,1417.57L3193.99,1417.57C3186.39,1417.57 3180.23,1411.4 3180.23,1403.81C3180.23,1396.22 3186.39,1390.05 3193.99,1390.05L3261.79,1390.05C3269.38,1390.05 3275.54,1396.22 3275.54,1403.81Z" style="fill:none;stroke:black;stroke-width:9.84px;"/>
                </g>
                <g transform="matrix(0.268284,0,0,0.28687,3293.85,-544.882)">
                    <path d="M3275.54,1403.81C3275.54,1411.4 3269.38,1417.57 3261.79,1417.57L3193.99,1417.57C3186.39,1417.57 3180.23,1411.4 3180.23,1403.81C3180.23,1396.22 3186.39,1390.05 3193.99,1390.05L3261.79,1390.05C3269.38,1390.05 3275.54,1396.22 3275.54,1403.81Z" style="fill:none;stroke:black;stroke-width:9.84px;"/>
                </g>
                <g transform="matrix(0.165015,1.18633e-17,1.13942e-17,0.280699,3683.34,-387.989)">
                    <path d="M2966.83,877.291C3039.4,877.291 3081.24,675.916 3157.72,675.916" style="fill:none;stroke:rgb(35,31,32);stroke-width:5.1px;stroke-dasharray:20.39,20.39,0,0,0,0;"/>
                </g>
                <g transform="matrix(0.165015,-1.00364e-17,-9.6396e-18,0.0970457,3683.34,-236.256)">
                    <path d="M2966.83,973.993C3039.4,973.993 3081.24,675.916 3157.72,675.916" style="fill:none;stroke:rgb(35,31,32);stroke-width:8.39px;stroke-dasharray:33.58,33.58,0,0,0,0;"/>
                </g>
                <g transform="matrix(-0.151071,3.33549e-17,2.89196e-17,0.0959409,4743.44,-263.248)">
                    <path d="M2966.83,676.688C3039.4,676.688 3081.24,675.916 3157.72,675.916" style="fill:none;stroke:black;stroke-width:9.14px;"/>
                </g>
                <g transform="matrix(-0.151071,-3.18091e-17,2.89196e-17,-0.0914946,4743.44,-108.391)">
                    <path d="M2966.83,982.961C3039.4,982.961 3081.24,675.916 3157.72,675.916" style="fill:none;stroke:black;stroke-width:21.49px;"/>
                </g>
                <g transform="matrix(-0.151071,-9.73518e-17,2.89196e-17,-0.280019,4743.44,47.3667)">
                    <path d="M2966.83,877.415C3039.4,877.415 3081.24,675.916 3157.72,675.916" style="fill:none;stroke:black;stroke-width:5.31px;"/>
                </g>
                <g transform="matrix(-0.175951,4.13392e-19,3.36823e-17,0.00118906,4780.3,-199.243)">
                    <path d="M2966.83,826.192C3039.4,826.192 3081.24,675.916 3157.72,675.916" style="fill:none;stroke:rgb(35,31,32);stroke-width:8.98px;stroke-dasharray:35.94,35.94,0,0,0,0;"/>
                </g>
                <g transform="matrix(-0.175951,-6.49891e-17,3.36823e-17,-0.186932,4780.3,-43.8183)">
                    <path d="M2966.83,826.192C3039.4,826.192 3081.24,675.916 3157.72,675.916" style="fill:none;stroke:rgb(35,31,32);stroke-width:6.37px;stroke-dasharray:25.49,25.49,0,0,0,0;"/>
                </g>
                <g transform="matrix(-0.175951,-1.06038e-16,-6.4046e-17,-0.002486,4780.3,-168.489)">
                    <path d="M2966.83,826.192C3039.4,826.192 3081.24,675.916 3157.72,675.916" style="fill:none;stroke:rgb(35,31,32);stroke-width:8.98px;stroke-dasharray:35.94,35.94,0,0,0,0;"/>
                </g>
                <g transform="matrix(-0.175951,-1.48629e-16,-1.65445e-16,0.188888,4780.3,-297.841)">
                    <path d="M2966.83,826.192C3039.4,826.192 3081.24,675.916 3157.72,675.916" style="fill:none;stroke:rgb(35,31,32);stroke-width:6.34px;stroke-dasharray:25.36,25.36,0,0,0,0;"/>
                </g>
                <g transform="matrix(-0.175951,-1.30382e-16,3.36823e-17,-0.375027,4780.3,111.584)">
                    <path d="M2966.83,826.192C3039.4,826.192 3081.24,675.916 3157.72,675.916" style="fill:none;stroke:rgb(35,31,32);stroke-width:4.03px;stroke-dasharray:16.12,16.12,0,0,0,0;"/>
                </g>
                <g transform="matrix(-0.175951,0,0,2e-06,4780.3,-141.903)">
                    <path d="M2966.83,826.192C3039.4,826.192 3081.24,675.916 3157.72,675.916" style="fill:none;stroke:rgb(35,31,32);stroke-width:8.98px;stroke-dasharray:35.94,35.94,0,0,0,0;"/>
                </g>
                <g transform="matrix(-0.175951,6.42625e-17,3.36823e-17,0.184842,4780.3,-323.377)">
                    <path d="M2966.83,826.192C3039.4,826.192 3081.24,675.916 3157.72,675.916" style="fill:none;stroke:rgb(35,31,32);stroke-width:6.41px;stroke-dasharray:25.64,25.64,0,0,0,0;"/>
                </g>
                <g transform="matrix(-0.175951,-6.66827e-17,3.36823e-17,-0.191804,4780.3,-12.195)">
                    <path d="M2966.83,826.192C3039.4,826.192 3081.24,675.916 3157.72,675.916" style="fill:none;stroke:rgb(35,31,32);stroke-width:6.29px;stroke-dasharray:25.17,25.17,0,0,0,0;"/>
                </g>
                <g transform="matrix(-0.175951,1.30882e-16,3.36823e-17,0.376463,4780.3,-452.892)">
                    <path d="M2966.83,826.192C3039.4,826.192 3081.24,675.916 3157.72,675.916" style="fill:none;stroke:rgb(35,31,32);stroke-width:4.02px;stroke-dasharray:16.07,16.07,0,0,0,0;"/>
                </g>
                <g transform="matrix(0.165015,-3.28893e-17,-3.1589e-17,-0.0946016,3683.34,-77.9189)">
                    <path d="M2966.83,674.572C3039.4,674.572 3081.24,675.916 3157.72,675.916" style="fill:none;stroke:rgb(35,31,32);stroke-width:8.44px;stroke-dasharray:33.77,33.77,0,0,0,0;"/>
                </g>
                <g transform="matrix(0.165015,-1.40809e-16,-1.01335e-17,-0.281936,3683.34,48.7036)">
                    <path d="M2966.83,775.317C3039.4,775.317 3081.24,675.916 3157.72,675.916" style="fill:none;stroke:rgb(35,31,32);stroke-width:5.08px;stroke-dasharray:20.33,20.33,0,0,0,0;"/>
                </g>
                <g transform="matrix(0.165015,-1.66311e-16,1.71005e-16,-0.0902889,3683.34,-109.634)">
                    <path d="M2966.83,667.33C3039.4,667.33 3081.24,675.916 3157.72,675.916" style="fill:none;stroke:rgb(35,31,32);stroke-width:8.53px;stroke-dasharray:34.11,34.11,0,0,0,0;"/>
                </g>
                <g transform="matrix(0.165015,-1.9034e-16,3.4168e-16,0.0902889,3683.34,-258.826)">
                    <path d="M2966.83,985.054C3039.4,985.054 3081.24,675.916 3157.72,675.916" style="fill:none;stroke:rgb(35,31,32);stroke-width:8.53px;stroke-dasharray:34.11,34.11,0,0,0,0;"/>
                </g>
            </g>
        </g>
    </g>
</svg>
