<?xml version="1.0" encoding="UTF-8" standalone="no"?>
<!DOCTYPE svg PUBLIC "-//W3C//DTD SVG 1.1//EN" "http://www.w3.org/Graphics/SVG/1.1/DTD/svg11.dtd">
<svg width="100%" height="100%" viewBox="0 0 260 140" version="1.1" xmlns="http://www.w3.org/2000/svg" xmlns:xlink="http://www.w3.org/1999/xlink" xml:space="preserve" xmlns:serif="http://www.serif.com/" style="fill-rule:evenodd;clip-rule:evenodd;stroke-linecap:round;stroke-linejoin:round;stroke-miterlimit:1.5;">
    <g transform="matrix(1,0,0,1,-5632.44,0)">
        <g id="Artboard4" transform="matrix(0.473107,0,0,0.409433,3520.37,380.317)">
            <rect x="4464.26" y="-928.886" width="549.559" height="341.936" style="fill:none;"/>
            <g transform="matrix(0.436519,0,0,0.436519,2670.35,-426.49)">
                <g transform="matrix(7.87855,0,0,7.04654,-30886.7,-2693.2)">
                    <g transform="matrix(0.268284,0,0,0.34661,3148.61,73.8562)">
                        <path d="M4843.73,661.417L4843.73,472.441" style="fill:none;stroke:white;stroke-width:4.17px;stroke-dasharray:16.67,16.67,0,0,0,0;"/>
                    </g>
                    <g transform="matrix(0.268284,0,0,0.34661,3222.38,73.8562)">
                        <path d="M4843.73,661.417L4843.73,472.441" style="fill:none;stroke:white;stroke-width:4.17px;stroke-dasharray:16.67,16.67,0,0,0,0;"/>
                    </g>
                    <g transform="matrix(0.268284,0,0,0.34661,3296.15,73.8562)">
                        <path d="M4843.73,661.417L4843.73,472.441" style="fill:none;stroke:white;stroke-width:4.17px;stroke-dasharray:16.67,16.67,0,0,0,0;"/>
                    </g>
                </g>
                <g transform="matrix(2.12971,0,0,2.56792,-6180.42,-2198.09)">
                    <path d="M4843.73,661.417L5410.66,661.417" style="fill:none;stroke:white;stroke-width:6.17px;"/>
                </g>
                <g transform="matrix(2.11369,0,0,2.4424,-6080.21,-2115.07)">
                    <path d="M4843.73,612.362C4890.98,530.1 5043.43,494.929 5119,533.496C5196.87,573.235 5335.23,578.74 5398.85,484.252" style="fill:none;stroke:white;stroke-width:9.84px;"/>
                </g>
                <g transform="matrix(2.85736,0,0,3.30173,-4215.34,-3344.35)">
                    <rect x="2922.51" y="820.6" width="16.044" height="16.044" style="fill:rgb(0,233,218);"/>
                    <path d="M2943.18,820.6L2943.18,836.644C2943.18,839.198 2941.11,841.267 2938.55,841.267L2922.51,841.267C2919.95,841.267 2917.89,839.198 2917.89,836.644L2917.89,820.6C2917.89,818.046 2919.95,815.976 2922.51,815.976L2938.55,815.976C2941.11,815.976 2943.18,818.046 2943.18,820.6ZM2938.55,820.6L2922.51,820.6L2922.51,836.644L2938.55,836.644L2938.55,820.6Z" style="fill:white;"/>
                </g>
                <g transform="matrix(2.85736,0,0,3.30173,-3053.79,-3669.7)">
                    <rect x="2922.51" y="820.6" width="16.044" height="16.044" style="fill:rgb(0,233,218);"/>
                    <path d="M2943.18,820.6L2943.18,836.644C2943.18,839.198 2941.11,841.267 2938.55,841.267L2922.51,841.267C2919.95,841.267 2917.89,839.198 2917.89,836.644L2917.89,820.6C2917.89,818.046 2919.95,815.976 2922.51,815.976L2938.55,815.976C2941.11,815.976 2943.18,818.046 2943.18,820.6ZM2938.55,820.6L2922.51,820.6L2922.51,836.644L2938.55,836.644L2938.55,820.6Z" style="fill:white;"/>
                </g>
                <g transform="matrix(2.85736,0,0,3.30173,-3634.74,-3550.47)">
                    <rect x="2922.51" y="820.6" width="16.044" height="16.044" style="fill:rgb(255,48,26);"/>
                    <path d="M2943.18,820.6L2943.18,836.644C2943.18,839.198 2941.11,841.267 2938.55,841.267L2922.51,841.267C2919.95,841.267 2917.89,839.198 2917.89,836.644L2917.89,820.6C2917.89,818.046 2919.95,815.976 2922.51,815.976L2938.55,815.976C2941.11,815.976 2943.18,818.046 2943.18,820.6ZM2938.55,820.6L2922.51,820.6L2922.51,836.644L2938.55,836.644L2938.55,820.6Z" style="fill:white;"/>
                </g>
            </g>
        </g>
    </g>
</svg>
