<?xml version="1.0" encoding="UTF-8" standalone="no"?>
<!DOCTYPE svg PUBLIC "-//W3C//DTD SVG 1.1//EN" "http://www.w3.org/Graphics/SVG/1.1/DTD/svg11.dtd">
<svg width="100%" height="100%" viewBox="0 0 260 140" version="1.1" xmlns="http://www.w3.org/2000/svg" xmlns:xlink="http://www.w3.org/1999/xlink" xml:space="preserve" xmlns:serif="http://www.serif.com/" style="fill-rule:evenodd;clip-rule:evenodd;stroke-linecap:round;stroke-linejoin:round;stroke-miterlimit:1.5;">
    <g transform="matrix(1,0,0,1,-4951.55,0)">
        <g id="Artboard4" transform="matrix(0.473107,0,0,0.409433,2839.48,380.317)">
            <rect x="4464.26" y="-928.886" width="549.559" height="341.936" style="fill:none;"/>
            <g transform="matrix(0.325072,0,0,0.325072,3198.51,-511.54)">
                <g transform="matrix(2.11369,1.90196e-32,5.10968e-32,2.4424,-2452.87,-3496.76)">
                    <path d="M3285.25,1057.61C3297.72,1050.41 3313.08,1050.41 3325.55,1057.61C3334.11,1062.54 3344.06,1068.29 3352.61,1073.23C3365.08,1080.43 3372.76,1093.73 3372.76,1108.13C3372.76,1118.01 3372.76,1129.5 3372.76,1139.38C3372.76,1153.77 3365.08,1167.08 3352.61,1174.28C3344.06,1179.21 3334.11,1184.96 3325.55,1189.9C3313.08,1197.1 3297.72,1197.1 3285.25,1189.9C3276.7,1184.96 3266.75,1179.21 3258.19,1174.28C3245.72,1167.08 3238.04,1153.77 3238.04,1139.38C3238.04,1129.5 3238.04,1118.01 3238.04,1108.13C3238.04,1093.73 3245.72,1080.43 3258.19,1073.23C3266.75,1068.29 3276.7,1062.54 3285.25,1057.61Z" style="fill:none;stroke:white;stroke-width:9.84px;"/>
                </g>
                <g transform="matrix(1.19432e-16,-2.25381,3.32078,2.34962e-16,406.04,6611.07)">
                    <path d="M3372.76,1084.86L3372.76,1129.32C3372.76,1150.65 3358.33,1171.12 3332.65,1186.21C3322.56,1192.14 3314.54,1196.85 3314.54,1196.85" style="fill:none;stroke:white;stroke-width:3.23px;stroke-dasharray:12.94,12.94,0,0,0,0;"/>
                </g>
                <g transform="matrix(1.16241e-16,-2.1936,3.32078,2.34962e-16,406.04,6589.24)">
                    <path d="M3297.26,1196.83C3297.26,1196.83 3279.12,1186.36 3262.92,1177.01C3246.98,1167.81 3238.04,1155.38 3238.04,1142.43C3238.04,1119.38 3238.04,1084.86 3238.04,1084.86" style="fill:none;stroke:white;stroke-width:3.26px;stroke-dasharray:13.02,13.02,0,0,0,0;"/>
                </g>
                <g transform="matrix(0.501473,1.2326e-32,1.2326e-32,0.579461,2876.14,-1403.27)">
                    <path d="M3305.4,1045.97L3372.76,1084.86L3372.76,1162.64L3305.4,1201.53L3238.04,1162.64L3238.04,1084.86L3305.4,1045.97Z" style="fill:rgb(255,48,26);"/>
                </g>
                <g transform="matrix(2.11369,4.53858e-32,5.10968e-32,2.4424,-1389.11,-4062.57)">
                    <path d="M3275.54,1353.81C3275.54,1361.4 3269.38,1367.57 3261.79,1367.57L3193.99,1367.57C3186.39,1367.57 3180.23,1361.4 3180.23,1353.81C3180.23,1346.22 3186.39,1340.05 3193.99,1340.05L3261.79,1340.05C3269.38,1340.05 3275.54,1346.22 3275.54,1353.81Z" style="fill:white;stroke:white;stroke-width:4.23px;"/>
                </g>
                <g transform="matrix(2.11369,4.53858e-32,5.10968e-32,2.4424,-1748.39,-4305.49)">
                    <path d="M3275.54,1353.81C3275.54,1361.4 3269.38,1367.57 3261.79,1367.57L3193.99,1367.57C3186.39,1367.57 3180.23,1361.4 3180.23,1353.81C3180.23,1346.22 3186.39,1340.05 3193.99,1340.05L3261.79,1340.05C3269.38,1340.05 3275.54,1346.22 3275.54,1353.81Z" style="fill:none;stroke:white;stroke-width:4.23px;"/>
                </g>
                <g transform="matrix(2.11369,4.53858e-32,5.10968e-32,2.4424,-1748.39,-3823.44)">
                    <path d="M3275.54,1353.81C3275.54,1361.4 3269.38,1367.57 3261.79,1367.57L3193.99,1367.57C3186.39,1367.57 3180.23,1361.4 3180.23,1353.81C3180.23,1346.22 3186.39,1340.05 3193.99,1340.05L3261.79,1340.05C3269.38,1340.05 3275.54,1346.22 3275.54,1353.81Z" style="fill:none;stroke:white;stroke-width:4.23px;"/>
                </g>
                <g transform="matrix(1.74963e-16,-3.30173,2.85736,2.02173e-16,1598.95,8684.84)">
                    <rect x="2922.51" y="820.6" width="16.044" height="16.044" style="fill:none;stroke:white;stroke-width:3.13px;"/>
                </g>
                <g transform="matrix(1.74963e-16,-3.30173,2.85736,2.02173e-16,1598.95,9158.71)">
                    <rect x="2922.51" y="820.6" width="16.044" height="16.044" style="fill:none;stroke:white;stroke-width:3.13px;"/>
                </g>
                <g transform="matrix(5.79871e-17,-1.09428,2.13105,1.50783e-16,2584.47,2813.41)">
                    <path d="M3262.23,991.034C3262.23,1081.99 3484.22,1021.9 3484.22,1112.85" style="fill:none;stroke:white;stroke-width:5.43px;"/>
                </g>
                <g transform="matrix(2.18817e-16,1.09041,2.13863,4.85093e-16,2576.97,-4313.55)">
                    <path d="M3262.23,991.034C3262.23,1081.99 3484.22,1021.9 3484.22,1112.85" style="fill:none;stroke:white;stroke-width:5.41px;"/>
                </g>
                <g transform="matrix(-3.63168e-19,0.00685335,5.1831,3.6673e-16,-440.205,-778.734)">
                    <path d="M3262.23,987.938C3262.23,1078.89 3484.22,1019.05 3484.22,1110" style="fill:none;stroke:white;stroke-width:4.07px;"/>
                </g>
            </g>
        </g>
    </g>
</svg>
