<?xml version="1.0" encoding="UTF-8" standalone="no"?>
<!DOCTYPE svg PUBLIC "-//W3C//DTD SVG 1.1//EN" "http://www.w3.org/Graphics/SVG/1.1/DTD/svg11.dtd">
<svg width="100%" height="100%" viewBox="0 0 260 140" version="1.1" xmlns="http://www.w3.org/2000/svg" xmlns:xlink="http://www.w3.org/1999/xlink" xml:space="preserve" xmlns:serif="http://www.serif.com/" style="fill-rule:evenodd;clip-rule:evenodd;stroke-linecap:round;stroke-linejoin:round;stroke-miterlimit:1.5;">
    <g transform="matrix(1,0,0,1,-5270.66,0)">
        <g id="Artboard4" transform="matrix(0.473107,0,0,0.409433,3158.59,380.317)">
            <rect x="4464.26" y="-928.886" width="549.559" height="341.936" style="fill:none;"/>
            <g transform="matrix(0.708141,0,0,0.818269,910,-1104.32)">
                <g transform="matrix(1.0546,0,0,1.0546,1333.54,161.575)">
                    <path d="M3804.36,388.965L3804.36,429.657C3804.36,435.735 3799.43,440.67 3793.35,440.67L3752.66,440.67C3746.58,440.67 3741.64,435.735 3741.64,429.657L3741.64,388.965C3741.64,382.887 3746.58,377.953 3752.66,377.953L3793.35,377.953C3799.43,377.953 3804.36,382.887 3804.36,388.965Z" style="fill:none;stroke:black;stroke-width:3.95px;"/>
                </g>
                <g transform="matrix(1.0546,0,0,1.0546,1363.54,-7.10751)">
                    <path d="M3804.36,388.965L3804.36,429.657C3804.36,435.735 3799.43,440.67 3793.35,440.67L3752.66,440.67C3746.58,440.67 3741.64,435.735 3741.64,429.657L3741.64,388.965C3741.64,382.887 3746.58,377.953 3752.66,377.953L3793.35,377.953C3799.43,377.953 3804.36,382.887 3804.36,388.965Z" style="fill:none;stroke:black;stroke-width:3.95px;"/>
                </g>
                <g transform="matrix(1.0546,0,0,1.0546,1393.54,-175.79)">
                    <path d="M3804.36,388.965L3804.36,429.657C3804.36,435.735 3799.43,440.67 3793.35,440.67L3752.66,440.67C3746.58,440.67 3741.64,435.735 3741.64,429.657L3741.64,388.965C3741.64,382.887 3746.58,377.953 3752.66,377.953L3793.35,377.953C3799.43,377.953 3804.36,382.887 3804.36,388.965Z" style="fill:none;stroke:black;stroke-width:3.95px;"/>
                </g>
                <g transform="matrix(1.0546,0,0,1.0546,1143.34,161.078)">
                    <path d="M3804.36,388.965L3804.36,429.657C3804.36,435.735 3799.43,440.67 3793.35,440.67L3752.66,440.67C3746.58,440.67 3741.64,435.735 3741.64,429.657L3741.64,388.965C3741.64,382.887 3746.58,377.953 3752.66,377.953L3793.35,377.953C3799.43,377.953 3804.36,382.887 3804.36,388.965Z" style="fill:none;stroke:black;stroke-width:3.95px;"/>
                </g>
                <g transform="matrix(1.0546,0,0,1.0546,1583.43,-175.79)">
                    <path d="M3804.36,388.965L3804.36,429.657C3804.36,435.735 3799.43,440.67 3793.35,440.67L3752.66,440.67C3746.58,440.67 3741.64,435.735 3741.64,429.657L3741.64,388.965C3741.64,382.887 3746.58,377.953 3752.66,377.953L3793.35,377.953C3799.43,377.953 3804.36,382.887 3804.36,388.965Z" style="fill:none;stroke:black;stroke-width:3.95px;"/>
                </g>
                <g transform="matrix(1.35184,0,0,1.35184,1350.94,-526.928)">
                    <rect x="2922.51" y="820.6" width="16.044" height="16.044" style="fill:rgb(0,233,218);"/>
                </g>
                <g transform="matrix(1.35184,0,0,1.35184,1380.94,-695.611)">
                    <rect x="2922.51" y="820.6" width="16.044" height="16.044"/>
                </g>
                <g transform="matrix(1.35184,0,0,1.35184,1410.94,-864.293)">
                    <rect x="2922.51" y="820.6" width="16.044" height="16.044" style="fill:rgb(255,96,0);"/>
                </g>
                <g transform="matrix(1.35184,0,0,1.35184,1160.75,-527.425)">
                    <rect x="2922.51" y="820.6" width="16.044" height="16.044" style="fill:rgb(0,233,218);"/>
                </g>
                <g transform="matrix(1.35184,0,0,1.35184,1600.83,-864.293)">
                    <rect x="2922.51" y="820.6" width="16.044" height="16.044" style="fill:rgb(255,96,0);"/>
                </g>
                <g transform="matrix(2.47387e-17,0.449841,1.45589,-9.87172e-17,4359.19,-1035.24)">
                    <path d="M2966.83,826.192C3039.4,826.192 3081.24,675.916 3157.72,675.916" style="fill:none;stroke:rgb(35,31,32);stroke-width:3.87px;stroke-dasharray:15.47,15.47,0,0,0,0;"/>
                </g>
                <g transform="matrix(-7.98283e-17,-0.449841,-1.45589,2.77013e-16,6325.32,1885.35)">
                    <path d="M2966.83,826.192C3039.4,826.192 3081.24,675.916 3157.72,675.916" style="fill:none;stroke:rgb(35,31,32);stroke-width:3.87px;stroke-dasharray:15.47,15.47,0,0,0,0;"/>
                </g>
                <g transform="matrix(-1.98103e-17,0.449841,0.215377,-1.74677e-16,5197.68,-1035.24)">
                    <path d="M2966.83,826.192C3039.4,826.192 3081.24,675.916 3157.72,675.916" style="fill:none;stroke:rgb(35,31,32);stroke-width:11.81px;stroke-dasharray:47.26,47.26,0,0,0,0;"/>
                </g>
                <g transform="matrix(-3.52794e-17,-0.449841,-0.215377,2.01053e-16,5486.83,1885.35)">
                    <path d="M2966.83,826.192C3039.4,826.192 3081.24,675.916 3157.72,675.916" style="fill:none;stroke:rgb(35,31,32);stroke-width:11.81px;stroke-dasharray:47.26,47.26,0,0,0,0;"/>
                </g>
            </g>
        </g>
    </g>
</svg>
