<?xml version="1.0" encoding="UTF-8" standalone="no"?>
<!DOCTYPE svg PUBLIC "-//W3C//DTD SVG 1.1//EN" "http://www.w3.org/Graphics/SVG/1.1/DTD/svg11.dtd">
<svg width="100%" height="100%" viewBox="0 0 260 140" version="1.1" xmlns="http://www.w3.org/2000/svg" xmlns:xlink="http://www.w3.org/1999/xlink" xml:space="preserve" xmlns:serif="http://www.serif.com/" style="fill-rule:evenodd;clip-rule:evenodd;stroke-linejoin:round;stroke-miterlimit:2;">
    <g transform="matrix(1,0,0,1,-9821.3,-585.53)">
        <g id="Artboard4" transform="matrix(0.473107,0,0,0.409433,7709.23,965.847)">
            <rect x="4464.26" y="-928.886" width="549.559" height="341.936" style="fill:none;"/>
            <clipPath id="_clip1">
                <rect x="4464.26" y="-928.886" width="549.559" height="341.936"/>
            </clipPath>
            <g clip-path="url(#_clip1)">
                <g transform="matrix(0.746806,0,0,0.862947,1717.34,-1142.96)">
                    <path d="M3806.34,388.965L3806.34,429.657C3806.34,436.826 3800.52,442.646 3793.35,442.646L3752.66,442.646C3745.49,442.646 3739.67,436.826 3739.67,429.657L3739.67,388.965C3739.67,381.797 3745.49,375.977 3752.66,375.977L3793.35,375.977C3800.52,375.977 3806.34,381.797 3806.34,388.965ZM3802.39,388.965C3802.39,383.978 3798.34,379.928 3793.35,379.928L3752.66,379.928C3747.67,379.928 3743.62,383.978 3743.62,388.965L3743.62,429.657C3743.62,434.645 3747.67,438.695 3752.66,438.695L3793.35,438.695C3798.34,438.695 3802.39,434.645 3802.39,429.657L3802.39,388.965Z" style="fill:white;"/>
                </g>
                <g transform="matrix(0.746806,0,0,0.862947,1717.34,-1073.39)">
                    <path d="M3806.34,388.965L3806.34,429.657C3806.34,436.826 3800.52,442.646 3793.35,442.646L3752.66,442.646C3745.49,442.646 3739.67,436.826 3739.67,429.657L3739.67,388.965C3739.67,381.797 3745.49,375.977 3752.66,375.977L3793.35,375.977C3800.52,375.977 3806.34,381.797 3806.34,388.965ZM3802.39,388.965C3802.39,383.978 3798.34,379.928 3793.35,379.928L3752.66,379.928C3747.67,379.928 3743.62,383.978 3743.62,388.965L3743.62,429.657C3743.62,434.645 3747.67,438.695 3752.66,438.695L3793.35,438.695C3798.34,438.695 3802.39,434.645 3802.39,429.657L3802.39,388.965Z" style="fill:white;"/>
                </g>
                <g transform="matrix(1.70671,0,0,1.97214,-1813.61,-1562.18)">
                    <path d="M3805.78,388.965L3805.78,429.657C3805.78,436.519 3800.21,442.089 3793.35,442.089L3752.66,442.089C3745.8,442.089 3740.23,436.519 3740.23,429.657L3740.23,388.965C3740.23,382.104 3745.8,376.534 3752.66,376.534L3793.35,376.534C3800.21,376.534 3805.78,382.104 3805.78,388.965ZM3802.94,388.965C3802.94,383.671 3798.64,379.372 3793.35,379.372L3752.66,379.372C3747.36,379.372 3743.06,383.671 3743.06,388.965L3743.06,429.657C3743.06,434.952 3747.36,439.251 3752.66,439.251L3793.35,439.251C3798.64,439.251 3802.94,434.952 3802.94,429.657L3802.94,388.965Z" style="fill:white;"/>
                </g>
                <g transform="matrix(5.02881,0,0,3.15615,-14351.8,-2045.3)">
                    <path d="M3803.42,434.561C3803.49,434.305 3803.66,434.208 3803.8,434.343C3803.94,434.479 3803.99,434.796 3803.92,435.052C3803.65,435.978 3803.32,436.829 3802.93,437.584C3802.82,437.794 3802.64,437.803 3802.53,437.604C3802.42,437.405 3802.41,437.073 3802.52,436.863C3802.87,436.177 3803.18,435.403 3803.42,434.561ZM3799.91,439.765C3800.06,439.688 3800.22,439.851 3800.26,440.13C3800.3,440.409 3800.21,440.698 3800.06,440.775C3799.53,441.048 3798.96,441.194 3798.38,441.194L3797.23,441.194C3797.07,441.194 3796.94,440.959 3796.94,440.67C3796.94,440.381 3797.07,440.146 3797.23,440.146L3798.38,440.146C3798.91,440.146 3799.42,440.013 3799.91,439.765ZM3794.92,440.146C3795.08,440.146 3795.2,440.381 3795.2,440.67C3795.2,440.959 3795.08,441.194 3794.92,441.194L3792.61,441.194C3792.46,441.194 3792.33,440.959 3792.33,440.67C3792.33,440.381 3792.46,440.146 3792.61,440.146L3794.92,440.146ZM3790.31,440.146C3790.46,440.146 3790.59,440.381 3790.59,440.67C3790.59,440.959 3790.46,441.194 3790.31,441.194L3788,441.194C3787.84,441.194 3787.72,440.959 3787.72,440.67C3787.72,440.381 3787.84,440.146 3788,440.146L3790.31,440.146ZM3785.69,440.146C3785.85,440.146 3785.98,440.381 3785.98,440.67C3785.98,440.959 3785.85,441.194 3785.69,441.194L3783.39,441.194C3783.23,441.194 3783.1,440.959 3783.1,440.67C3783.1,440.381 3783.23,440.146 3783.39,440.146L3785.69,440.146ZM3781.08,440.146C3781.24,440.146 3781.36,440.381 3781.36,440.67C3781.36,440.959 3781.24,441.194 3781.08,441.194L3778.77,441.194C3778.61,441.194 3778.49,440.959 3778.49,440.67C3778.49,440.381 3778.61,440.146 3778.77,440.146L3781.08,440.146ZM3776.46,440.146C3776.62,440.146 3776.75,440.381 3776.75,440.67C3776.75,440.959 3776.62,441.194 3776.46,441.194L3774.16,441.194C3774,441.194 3773.87,440.959 3773.87,440.67C3773.87,440.381 3774,440.146 3774.16,440.146L3776.46,440.146ZM3771.85,440.146C3772.01,440.146 3772.14,440.381 3772.14,440.67C3772.14,440.959 3772.01,441.194 3771.85,441.194L3769.54,441.194C3769.39,441.194 3769.26,440.959 3769.26,440.67C3769.26,440.381 3769.39,440.146 3769.54,440.146L3771.85,440.146ZM3767.24,440.146C3767.39,440.146 3767.52,440.381 3767.52,440.67C3767.52,440.959 3767.39,441.194 3767.24,441.194L3764.93,441.194C3764.77,441.194 3764.64,440.959 3764.64,440.67C3764.64,440.381 3764.77,440.146 3764.93,440.146L3767.24,440.146ZM3762.62,440.146C3762.78,440.146 3762.91,440.381 3762.91,440.67C3762.91,440.959 3762.78,441.194 3762.62,441.194L3760.32,441.194C3760.16,441.194 3760.03,440.959 3760.03,440.67C3760.03,440.381 3760.16,440.146 3760.32,440.146L3762.62,440.146ZM3758.01,440.146C3758.16,440.146 3758.29,440.381 3758.29,440.67C3758.29,440.959 3758.16,441.194 3758.01,441.194L3755.7,441.194C3755.54,441.194 3755.42,440.959 3755.42,440.67C3755.42,440.381 3755.54,440.146 3755.7,440.146L3758.01,440.146ZM3753.39,440.146C3753.55,440.146 3753.68,440.381 3753.68,440.67C3753.68,440.959 3753.55,441.194 3753.39,441.194L3751.09,441.194C3750.93,441.194 3750.8,440.959 3750.8,440.67C3750.8,440.381 3750.93,440.146 3751.09,440.146L3753.39,440.146ZM3748.78,440.146C3748.94,440.146 3749.07,440.381 3749.07,440.67C3749.07,440.959 3748.94,441.194 3748.78,441.194L3747.63,441.194C3747.21,441.194 3746.8,441.119 3746.4,440.974C3746.25,440.918 3746.15,440.642 3746.18,440.358C3746.21,440.075 3746.36,439.89 3746.51,439.946C3746.88,440.077 3747.25,440.146 3747.63,440.146L3748.78,440.146ZM3744.46,438.378C3744.59,438.539 3744.63,438.865 3744.54,439.105C3744.45,439.346 3744.28,439.41 3744.15,439.249C3743.46,438.407 3742.87,437.324 3742.42,436.067C3742.33,435.826 3742.36,435.501 3742.49,435.34C3742.63,435.179 3742.8,435.243 3742.89,435.483C3743.31,436.627 3743.84,437.612 3744.46,438.378ZM3742.04,431.704C3742.07,431.988 3741.97,432.264 3741.81,432.32C3741.66,432.376 3741.51,432.192 3741.48,431.908C3741.4,431.18 3741.36,430.427 3741.36,429.657L3741.36,427.114C3741.36,426.825 3741.49,426.59 3741.64,426.59C3741.8,426.59 3741.93,426.825 3741.93,427.114L3741.93,429.657C3741.93,430.358 3741.97,431.042 3742.04,431.704ZM3741.93,422.028C3741.93,422.317 3741.8,422.552 3741.64,422.552C3741.49,422.552 3741.36,422.317 3741.36,422.028L3741.36,416.941C3741.36,416.652 3741.49,416.417 3741.64,416.417C3741.8,416.417 3741.93,416.652 3741.93,416.941L3741.93,422.028ZM3741.93,411.855C3741.93,412.144 3741.8,412.379 3741.64,412.379C3741.49,412.379 3741.36,412.144 3741.36,411.855L3741.36,406.768C3741.36,406.479 3741.49,406.244 3741.64,406.244C3741.8,406.244 3741.93,406.479 3741.93,406.768L3741.93,411.855ZM3741.93,401.682C3741.93,401.971 3741.8,402.206 3741.64,402.206C3741.49,402.206 3741.36,401.971 3741.36,401.682L3741.36,396.595C3741.36,396.306 3741.49,396.071 3741.64,396.071C3741.8,396.071 3741.93,396.306 3741.93,396.595L3741.93,401.682ZM3741.93,391.509C3741.93,391.798 3741.8,392.033 3741.64,392.033C3741.49,392.033 3741.36,391.798 3741.36,391.509L3741.36,388.965C3741.36,388.195 3741.4,387.443 3741.48,386.715C3741.51,386.431 3741.66,386.246 3741.81,386.303C3741.97,386.359 3742.07,386.635 3742.04,386.919C3741.97,387.581 3741.93,388.265 3741.93,388.965L3741.93,391.509ZM3742.89,383.14C3742.8,383.38 3742.63,383.444 3742.49,383.283C3742.36,383.122 3742.33,382.797 3742.42,382.556C3742.87,381.299 3743.46,380.216 3744.14,379.374C3744.28,379.213 3744.45,379.277 3744.54,379.517C3744.63,379.758 3744.59,380.084 3744.46,380.245C3743.84,381.011 3743.31,381.996 3742.89,383.14ZM3746.51,378.677C3746.36,378.733 3746.21,378.548 3746.18,378.264C3746.15,377.981 3746.25,377.705 3746.4,377.649C3746.8,377.504 3747.21,377.429 3747.63,377.429L3748.78,377.429C3748.94,377.429 3749.07,377.664 3749.07,377.953C3749.07,378.242 3748.94,378.477 3748.78,378.477L3747.63,378.477C3747.25,378.477 3746.88,378.546 3746.51,378.677ZM3751.09,378.477C3750.93,378.477 3750.8,378.242 3750.8,377.953C3750.8,377.664 3750.93,377.429 3751.09,377.429L3753.39,377.429C3753.55,377.429 3753.68,377.664 3753.68,377.953C3753.68,378.242 3753.55,378.477 3753.39,378.477L3751.09,378.477ZM3755.7,378.477C3755.54,378.477 3755.42,378.242 3755.42,377.953C3755.42,377.664 3755.54,377.429 3755.7,377.429L3758.01,377.429C3758.16,377.429 3758.29,377.664 3758.29,377.953C3758.29,378.242 3758.16,378.477 3758.01,378.477L3755.7,378.477ZM3760.32,378.477C3760.16,378.477 3760.03,378.242 3760.03,377.953C3760.03,377.664 3760.16,377.429 3760.32,377.429L3762.62,377.429C3762.78,377.429 3762.91,377.664 3762.91,377.953C3762.91,378.242 3762.78,378.477 3762.62,378.477L3760.32,378.477ZM3764.93,378.477C3764.77,378.477 3764.64,378.242 3764.64,377.953C3764.64,377.664 3764.77,377.429 3764.93,377.429L3767.24,377.429C3767.39,377.429 3767.52,377.664 3767.52,377.953C3767.52,378.242 3767.39,378.477 3767.24,378.477L3764.93,378.477ZM3769.54,378.477C3769.39,378.477 3769.26,378.242 3769.26,377.953C3769.26,377.664 3769.39,377.429 3769.54,377.429L3771.85,377.429C3772.01,377.429 3772.14,377.664 3772.14,377.953C3772.14,378.242 3772.01,378.477 3771.85,378.477L3769.54,378.477ZM3774.16,378.477C3774,378.477 3773.87,378.242 3773.87,377.953C3773.87,377.664 3774,377.429 3774.16,377.429L3776.46,377.429C3776.62,377.429 3776.75,377.664 3776.75,377.953C3776.75,378.242 3776.62,378.477 3776.46,378.477L3774.16,378.477ZM3778.77,378.477C3778.61,378.477 3778.49,378.242 3778.49,377.953C3778.49,377.664 3778.61,377.429 3778.77,377.429L3781.08,377.429C3781.24,377.429 3781.36,377.664 3781.36,377.953C3781.36,378.242 3781.24,378.477 3781.08,378.477L3778.77,378.477ZM3783.39,378.477C3783.23,378.477 3783.1,378.242 3783.1,377.953C3783.1,377.664 3783.23,377.429 3783.39,377.429L3785.69,377.429C3785.85,377.429 3785.98,377.664 3785.98,377.953C3785.98,378.242 3785.85,378.477 3785.69,378.477L3783.39,378.477ZM3788,378.477C3787.84,378.477 3787.72,378.242 3787.72,377.953C3787.72,377.664 3787.84,377.429 3788,377.429L3790.31,377.429C3790.46,377.429 3790.59,377.664 3790.59,377.953C3790.59,378.242 3790.46,378.477 3790.31,378.477L3788,378.477ZM3792.61,378.477C3792.46,378.477 3792.33,378.242 3792.33,377.953C3792.33,377.664 3792.46,377.429 3792.61,377.429L3794.92,377.429C3795.08,377.429 3795.2,377.664 3795.2,377.953C3795.2,378.242 3795.08,378.477 3794.92,378.477L3792.61,378.477ZM3797.23,378.477C3797.07,378.477 3796.94,378.242 3796.94,377.953C3796.94,377.664 3797.07,377.429 3797.23,377.429L3798.38,377.429C3798.99,377.429 3799.58,377.59 3800.14,377.891C3800.29,377.972 3800.38,378.264 3800.34,378.541C3800.29,378.819 3800.13,378.978 3799.98,378.897C3799.47,378.623 3798.94,378.477 3798.38,378.477L3797.23,378.477ZM3802.68,382.078C3802.57,381.86 3802.59,381.528 3802.7,381.338C3802.82,381.148 3803,381.171 3803.11,381.389C3803.49,382.21 3803.82,383.134 3804.07,384.136C3804.14,384.398 3804.08,384.71 3803.93,384.831C3803.79,384.952 3803.62,384.838 3803.56,384.575C3803.33,383.665 3803.03,382.825 3802.68,382.078Z" style="fill:white;"/>
                </g>
                <g transform="matrix(1.15407e-17,0.217785,-0.188474,1.33355e-17,4837.63,-1474.83)">
                    <path d="M3305.4,1045.97L3372.76,1084.86L3372.76,1162.64L3305.4,1201.53L3238.04,1162.64L3238.04,1084.86L3305.4,1045.97Z" style="fill:rgb(255,48,26);"/>
                </g>
                <g transform="matrix(1.15407e-17,0.217785,-0.188474,1.33355e-17,4991.4,-1481.61)">
                    <path d="M3305.4,1045.97L3372.76,1084.86L3372.76,1162.64L3305.4,1201.53L3238.04,1162.64L3238.04,1084.86L3305.4,1045.97Z" style="fill:rgb(255,48,26);"/>
                </g>
                <g transform="matrix(0.794541,-7.12666e-33,7.12666e-33,0.918105,2153.32,-1779.48)">
                    <path d="M3301.6,1027.51C3304.12,1027.15 3306.68,1027.15 3309.2,1027.51L3354.39,1034.08C3367.38,1035.97 3377.01,1047.11 3377.01,1060.23L3377.01,1155.59C3377.01,1164.76 3372.26,1173.27 3364.46,1178.08L3319.27,1205.95C3310.77,1211.2 3300.03,1211.2 3291.53,1205.95L3246.34,1178.08C3238.54,1173.27 3233.79,1164.76 3233.79,1155.59L3233.79,1060.23C3233.79,1047.11 3243.42,1035.97 3256.41,1034.08L3301.6,1027.51ZM3302.82,1035.93L3257.63,1042.5C3248.83,1043.78 3242.29,1051.33 3242.3,1060.23L3242.3,1155.59C3242.29,1161.81 3245.51,1167.58 3250.81,1170.84L3295.99,1198.71C3301.76,1202.27 3309.04,1202.27 3314.81,1198.71L3360,1170.84C3365.29,1167.58 3368.51,1161.81 3368.51,1155.59L3368.51,1060.23C3368.51,1051.33 3361.98,1043.78 3353.17,1042.5L3307.98,1035.93C3306.27,1035.68 3304.53,1035.68 3302.82,1035.93Z" style="fill:white;"/>
                </g>
            </g>
        </g>
    </g>
</svg>
