<?xml version="1.0" encoding="UTF-8" standalone="no"?>
<!DOCTYPE svg PUBLIC "-//W3C//DTD SVG 1.1//EN" "http://www.w3.org/Graphics/SVG/1.1/DTD/svg11.dtd">
<svg width="100%" height="100%" viewBox="0 0 260 140" version="1.1" xmlns="http://www.w3.org/2000/svg" xmlns:xlink="http://www.w3.org/1999/xlink" xml:space="preserve" xmlns:serif="http://www.serif.com/" style="fill-rule:evenodd;clip-rule:evenodd;stroke-linecap:round;stroke-linejoin:round;stroke-miterlimit:1.5;">
    <g transform="matrix(1,0,0,1,-4577.71,0)">
        <g id="Artboard4" transform="matrix(0.473107,0,0,0.409433,2465.64,380.317)">
            <rect x="4464.26" y="-928.886" width="549.559" height="341.936" style="fill:none;"/>
            <g transform="matrix(1.31697,0,0,1.16977,-700.081,-1123.63)">
                <g transform="matrix(1,0,0,1,-52.6637,-319.904)">
                    <g transform="matrix(0.50988,0,0,0.663311,2568.18,376.259)">
                        <circle cx="2828.2" cy="383.181" r="35.384" style="fill:none;stroke:rgb(35,31,32);stroke-width:4.23px;"/>
                    </g>
                    <g transform="matrix(0.689275,0,0,0.89669,1990.28,-112.59)">
                        <rect x="2922.51" y="820.6" width="16.044" height="16.044" style="fill:rgb(255,96,0);"/>
                    </g>
                </g>
                <g transform="matrix(1,0,0,1,217.552,-319.904)">
                    <g transform="matrix(0.50988,0,0,0.663311,2568.18,376.259)">
                        <circle cx="2828.2" cy="383.181" r="35.384" style="fill:none;stroke:rgb(35,31,32);stroke-width:4.23px;"/>
                    </g>
                    <g transform="matrix(0.689275,0,0,0.89669,1990.28,-112.59)">
                        <rect x="2922.51" y="820.6" width="16.044" height="16.044" style="fill:rgb(35,31,32);"/>
                    </g>
                </g>
                <g transform="matrix(1,0,0,1,82.4008,-219.017)">
                    <g transform="matrix(0.50988,0,0,0.663311,2568.18,376.259)">
                        <circle cx="2828.2" cy="383.181" r="35.384" style="fill:none;stroke:rgb(35,31,32);stroke-width:4.23px;"/>
                    </g>
                    <g transform="matrix(0.689275,0,0,0.89669,1990.28,-112.59)">
                        <rect x="2922.51" y="820.6" width="16.044" height="16.044" style="fill:rgb(35,31,32);"/>
                    </g>
                </g>
                <g transform="matrix(1,0,0,1,82.4008,-419.194)">
                    <g transform="matrix(0.50988,0,0,0.663311,2568.18,376.259)">
                        <circle cx="2828.2" cy="383.181" r="35.384" style="fill:none;stroke:rgb(35,31,32);stroke-width:4.23px;"/>
                    </g>
                    <g transform="matrix(0.689275,0,0,0.89669,1990.28,-112.59)">
                        <rect x="2922.51" y="820.6" width="16.044" height="16.044" style="fill:rgb(0,233,218);"/>
                    </g>
                </g>
            </g>
            <g transform="matrix(0.661007,0,0,0.768634,2576.61,-1396.29)">
                <path d="M2966.83,826.192C3039.4,826.192 3081.24,675.916 3157.72,675.916" style="fill:none;stroke:black;stroke-width:9.96px;"/>
            </g>
            <g transform="matrix(0.671495,1.91048e-18,-1.698e-18,-0.780854,2544.61,-114.309)">
                <path d="M2966.83,826.192C3039.4,826.192 3081.24,675.916 3157.72,675.916" style="fill:none;stroke:black;stroke-width:4.22px;"/>
            </g>
            <g transform="matrix(0.671495,0,0,0.796876,2722.27,-1300.47)">
                <path d="M2966.83,826.192C3039.4,826.192 3081.24,675.916 3157.72,675.916" style="fill:none;stroke:rgb(35,31,32);stroke-width:4.11px;stroke-dasharray:16.44,16.44,0,0,0,0;"/>
            </g>
        </g>
    </g>
</svg>
