<?xml version="1.0" encoding="UTF-8" standalone="no"?>
<!DOCTYPE svg PUBLIC "-//W3C//DTD SVG 1.1//EN" "http://www.w3.org/Graphics/SVG/1.1/DTD/svg11.dtd">
<svg width="100%" height="100%" viewBox="0 0 260 140" version="1.1" xmlns="http://www.w3.org/2000/svg" xmlns:xlink="http://www.w3.org/1999/xlink" xml:space="preserve" xmlns:serif="http://www.serif.com/" style="fill-rule:evenodd;clip-rule:evenodd;stroke-linejoin:round;stroke-miterlimit:2;">
    <g transform="matrix(1,0,0,1,-10244.1,-585.53)">
        <g id="Artboard4" transform="matrix(0.473107,0,0,0.409433,8132.03,965.847)">
            <rect x="4464.26" y="-928.886" width="549.559" height="341.936" style="fill:none;"/>
            <g transform="matrix(0.743931,7.88783e-33,1.46536e-32,0.424477,2280.24,-1275.62)">
                <path d="M3275.54,1353.81C3275.54,1361.4 3272.5,1367.57 3268.75,1367.57L3187.02,1367.57C3183.28,1367.57 3180.23,1361.4 3180.23,1353.81C3180.23,1346.22 3183.28,1340.05 3187.02,1340.05L3268.75,1340.05C3272.5,1340.05 3275.54,1346.22 3275.54,1353.81Z" style="fill:rgb(255,48,26);"/>
            </g>
            <g transform="matrix(0.743931,7.88783e-33,1.46536e-32,0.424477,2195.09,-1275.62)">
                <path d="M3275.54,1353.81C3275.54,1361.4 3272.5,1367.57 3268.75,1367.57L3187.02,1367.57C3183.28,1367.57 3180.23,1361.4 3180.23,1353.81C3180.23,1346.22 3183.28,1340.05 3187.02,1340.05L3268.75,1340.05C3272.5,1340.05 3275.54,1346.22 3275.54,1353.81Z"/>
            </g>
            <g transform="matrix(0.743931,7.88783e-33,1.46536e-32,0.424477,2365.4,-1275.62)">
                <path d="M3275.54,1353.81C3275.54,1361.4 3272.5,1367.57 3268.75,1367.57L3187.02,1367.57C3183.28,1367.57 3180.23,1361.4 3180.23,1353.81C3180.23,1346.22 3183.28,1340.05 3187.02,1340.05L3268.75,1340.05C3272.5,1340.05 3275.54,1346.22 3275.54,1353.81Z"/>
            </g>
            <g transform="matrix(1.36925,3.66357e-48,-9.60852e-33,1.22465,-1581.47,-1690.61)">
                <g transform="matrix(0.268284,6.44087e-33,6.48556e-33,0.34661,3669.56,382.501)">
                    <path d="M3275.54,1353.81C3275.54,1361.4 3269.38,1367.57 3261.79,1367.57L3193.99,1367.57C3186.39,1367.57 3180.23,1361.4 3180.23,1353.81C3180.23,1346.22 3186.39,1340.05 3193.99,1340.05L3261.79,1340.05C3269.38,1340.05 3275.54,1346.22 3275.54,1353.81Z" style="fill:none;"/>
                </g>
                <g transform="matrix(0.268284,6.44087e-33,6.48556e-33,0.34661,3629.74,382.501)">
                    <path d="M3275.54,1353.81C3275.54,1361.4 3269.38,1367.57 3261.79,1367.57L3193.99,1367.57C3186.39,1367.57 3180.23,1361.4 3180.23,1353.81C3180.23,1346.22 3186.39,1340.05 3193.99,1340.05L3261.79,1340.05C3269.38,1340.05 3275.54,1346.22 3275.54,1353.81Z" style="fill:none;"/>
                </g>
                <g transform="matrix(0.268284,6.44087e-33,6.48556e-33,0.34661,3709.37,382.501)">
                    <path d="M3275.54,1353.81C3275.54,1361.4 3269.38,1367.57 3261.79,1367.57L3193.99,1367.57C3186.39,1367.57 3180.23,1361.4 3180.23,1353.81C3180.23,1346.22 3186.39,1340.05 3193.99,1340.05L3261.79,1340.05C3269.38,1340.05 3275.54,1346.22 3275.54,1353.81Z" style="fill:none;"/>
                </g>
                <g transform="matrix(0.268284,6.44087e-33,6.48556e-33,0.34661,3749.19,382.501)">
                    <path d="M3275.54,1353.81C3275.54,1361.4 3269.38,1367.57 3261.79,1367.57L3193.99,1367.57C3186.39,1367.57 3180.23,1361.4 3180.23,1353.81C3180.23,1346.22 3186.39,1340.05 3193.99,1340.05L3261.79,1340.05C3269.38,1340.05 3275.54,1346.22 3275.54,1353.81Z" style="fill:none;"/>
                </g>
                <g transform="matrix(0.268284,6.44087e-33,6.48556e-33,0.34661,3789,382.501)">
                    <path d="M3275.54,1353.81C3275.54,1361.4 3269.38,1367.57 3261.79,1367.57L3193.99,1367.57C3186.39,1367.57 3180.23,1361.4 3180.23,1353.81C3180.23,1346.22 3186.39,1340.05 3193.99,1340.05L3261.79,1340.05C3269.38,1340.05 3275.54,1346.22 3275.54,1353.81Z" style="fill:none;"/>
                </g>
            </g>
            <g transform="matrix(0.528311,4.6147e-49,-1.56366e-33,0.199296,-1801.08,-1365.48)">
                <path d="M12674.9,2684.03C12673.5,2684.03 12672.4,2680.6 12672.4,2676.37C12672.4,2672.15 12673.5,2668.71 12674.9,2668.71L12687.6,2668.71C12694,2668.71 12699.2,2684.66 12699.2,2704.3L12699.2,2753.23C12699.2,2757.46 12698.1,2760.89 12696.7,2760.89C12695.3,2760.89 12694.2,2757.46 12694.2,2753.23L12694.2,2704.3C12694.2,2693.11 12691.2,2684.03 12687.6,2684.03L12674.9,2684.03ZM12694.2,2811.95C12694.2,2807.72 12695.3,2804.29 12696.7,2804.29C12698.1,2804.29 12699.2,2807.72 12699.2,2811.95L12699.2,2909.82C12699.2,2914.05 12698.1,2917.48 12696.7,2917.48C12695.3,2917.48 12694.2,2914.05 12694.2,2909.82L12694.2,2811.95ZM12694.2,2968.54C12694.2,2964.31 12695.3,2960.88 12696.7,2960.88C12698.1,2960.88 12699.2,2964.31 12699.2,2968.54L12699.2,3066.4C12699.2,3070.63 12698.1,3074.06 12696.7,3074.06C12695.3,3074.06 12694.2,3070.63 12694.2,3066.4L12694.2,2968.54ZM12694.2,3125.12C12694.2,3120.89 12695.3,3117.46 12696.7,3117.46C12698.1,3117.46 12699.2,3120.89 12699.2,3125.12L12699.2,3174.05C12699.2,3193.7 12694,3209.64 12687.6,3209.64L12674.9,3209.64C12673.5,3209.64 12672.4,3206.21 12672.4,3201.98C12672.4,3197.75 12673.5,3194.32 12674.9,3194.32L12687.6,3194.32C12691.2,3194.32 12694.2,3185.24 12694.2,3174.05L12694.2,3125.12ZM12659.7,3194.32C12661.1,3194.32 12662.2,3197.75 12662.2,3201.98C12662.2,3206.21 12661.1,3209.64 12659.7,3209.64L12634.4,3209.64C12633.1,3209.64 12631.9,3206.21 12631.9,3201.98C12631.9,3197.75 12633.1,3194.32 12634.4,3194.32L12659.7,3194.32ZM12619.3,3194.32C12620.6,3194.32 12621.8,3197.75 12621.8,3201.98C12621.8,3206.21 12620.6,3209.64 12619.3,3209.64L12594,3209.64C12592.6,3209.64 12591.5,3206.21 12591.5,3201.98C12591.5,3197.75 12592.6,3194.32 12594,3194.32L12619.3,3194.32ZM12578.8,3194.32C12580.2,3194.32 12581.3,3197.75 12581.3,3201.98C12581.3,3206.21 12580.2,3209.64 12578.8,3209.64L12553.5,3209.64C12552.1,3209.64 12551,3206.21 12551,3201.98C12551,3197.75 12552.1,3194.32 12553.5,3194.32L12578.8,3194.32ZM12538.3,3194.32C12539.7,3194.32 12540.8,3197.75 12540.8,3201.98C12540.8,3206.21 12539.7,3209.64 12538.3,3209.64L12513,3209.64C12511.6,3209.64 12510.5,3206.21 12510.5,3201.98C12510.5,3197.75 12511.6,3194.32 12513,3194.32L12538.3,3194.32ZM12497.8,3194.32C12499.2,3194.32 12500.3,3197.75 12500.3,3201.98C12500.3,3206.21 12499.2,3209.64 12497.8,3209.64L12472.5,3209.64C12471.2,3209.64 12470,3206.21 12470,3201.98C12470,3197.75 12471.2,3194.32 12472.5,3194.32L12497.8,3194.32ZM12457.4,3194.32C12458.7,3194.32 12459.9,3197.75 12459.9,3201.98C12459.9,3206.21 12458.7,3209.64 12457.4,3209.64L12432.1,3209.64C12430.7,3209.64 12429.6,3206.21 12429.6,3201.98C12429.6,3197.75 12430.7,3194.32 12432.1,3194.32L12457.4,3194.32ZM12416.9,3194.32C12418.3,3194.32 12419.4,3197.75 12419.4,3201.98C12419.4,3206.21 12418.3,3209.64 12416.9,3209.64L12391.6,3209.64C12390.2,3209.64 12389.1,3206.21 12389.1,3201.98C12389.1,3197.75 12390.2,3194.32 12391.6,3194.32L12416.9,3194.32ZM12376.4,3194.32C12377.8,3194.32 12378.9,3197.75 12378.9,3201.98C12378.9,3206.21 12377.8,3209.64 12376.4,3209.64L12351.1,3209.64C12349.7,3209.64 12348.6,3206.21 12348.6,3201.98C12348.6,3197.75 12349.7,3194.32 12351.1,3194.32L12376.4,3194.32ZM12335.9,3194.32C12337.3,3194.32 12338.4,3197.75 12338.4,3201.98C12338.4,3206.21 12337.3,3209.64 12335.9,3209.64L12310.6,3209.64C12309.3,3209.64 12308.1,3206.21 12308.1,3201.98C12308.1,3197.75 12309.3,3194.32 12310.6,3194.32L12335.9,3194.32ZM12295.5,3194.32C12296.9,3194.32 12298,3197.75 12298,3201.98C12298,3206.21 12296.9,3209.64 12295.5,3209.64L12270.2,3209.64C12268.8,3209.64 12267.7,3206.21 12267.7,3201.98C12267.7,3197.75 12268.8,3194.32 12270.2,3194.32L12295.5,3194.32ZM12255,3194.32C12256.4,3194.32 12257.5,3197.75 12257.5,3201.98C12257.5,3206.21 12256.4,3209.64 12255,3209.64L12229.7,3209.64C12228.3,3209.64 12227.2,3206.21 12227.2,3201.98C12227.2,3197.75 12228.3,3194.32 12229.7,3194.32L12255,3194.32ZM12214.5,3194.32C12215.9,3194.32 12217,3197.75 12217,3201.98C12217,3206.21 12215.9,3209.64 12214.5,3209.64L12189.2,3209.64C12187.8,3209.64 12186.7,3206.21 12186.7,3201.98C12186.7,3197.75 12187.8,3194.32 12189.2,3194.32L12214.5,3194.32ZM12174,3194.32C12175.4,3194.32 12176.6,3197.75 12176.6,3201.98C12176.6,3206.21 12175.4,3209.64 12174,3209.64L12148.8,3209.64C12147.4,3209.64 12146.3,3206.21 12146.3,3201.98C12146.3,3197.75 12147.4,3194.32 12148.8,3194.32L12174,3194.32ZM12133.6,3194.32C12135,3194.32 12136.1,3197.75 12136.1,3201.98C12136.1,3206.21 12135,3209.64 12133.6,3209.64L12108.3,3209.64C12106.9,3209.64 12105.8,3206.21 12105.8,3201.98C12105.8,3197.75 12106.9,3194.32 12108.3,3194.32L12133.6,3194.32ZM12093.1,3194.32C12094.5,3194.32 12095.6,3197.75 12095.6,3201.98C12095.6,3206.21 12094.5,3209.64 12093.1,3209.64L12067.8,3209.64C12066.4,3209.64 12065.3,3206.21 12065.3,3201.98C12065.3,3197.75 12066.4,3194.32 12067.8,3194.32L12093.1,3194.32ZM12052.6,3194.32C12054,3194.32 12055.1,3197.75 12055.1,3201.98C12055.1,3206.21 12054,3209.64 12052.6,3209.64L12027.3,3209.64C12026,3209.64 12024.8,3206.21 12024.8,3201.98C12024.8,3197.75 12026,3194.32 12027.3,3194.32L12052.6,3194.32ZM12012.2,3194.32C12013.5,3194.32 12014.7,3197.75 12014.7,3201.98C12014.7,3206.21 12013.5,3209.64 12012.2,3209.64L11986.9,3209.64C11985.5,3209.64 11984.4,3206.21 11984.4,3201.98C11984.4,3197.75 11985.5,3194.32 11986.9,3194.32L12012.2,3194.32ZM11971.7,3194.32C11973.1,3194.32 11974.2,3197.75 11974.2,3201.98C11974.2,3206.21 11973.1,3209.64 11971.7,3209.64L11946.4,3209.64C11945,3209.64 11943.9,3206.21 11943.9,3201.98C11943.9,3197.75 11945,3194.32 11946.4,3194.32L11971.7,3194.32ZM11931.2,3194.32C11932.6,3194.32 11933.7,3197.75 11933.7,3201.98C11933.7,3206.21 11932.6,3209.64 11931.2,3209.64L11905.9,3209.64C11904.5,3209.64 11903.4,3206.21 11903.4,3201.98C11903.4,3197.75 11904.5,3194.32 11905.9,3194.32L11931.2,3194.32ZM11890.7,3194.32C11892.1,3194.32 11893.2,3197.75 11893.2,3201.98C11893.2,3206.21 11892.1,3209.64 11890.7,3209.64L11878.1,3209.64C11871.7,3209.64 11866.5,3193.7 11866.5,3174.05L11866.5,3125.12C11866.5,3120.89 11867.6,3117.46 11869,3117.46C11870.3,3117.46 11871.5,3120.89 11871.5,3125.12L11871.5,3174.05C11871.5,3185.24 11874.4,3194.32 11878.1,3194.32L11890.7,3194.32ZM11871.5,3066.4C11871.5,3070.63 11870.3,3074.06 11869,3074.06C11867.6,3074.06 11866.5,3070.63 11866.5,3066.4L11866.5,2968.54C11866.5,2964.31 11867.6,2960.88 11869,2960.88C11870.3,2960.88 11871.5,2964.31 11871.5,2968.54L11871.5,3066.4ZM11871.5,2909.82C11871.5,2914.05 11870.3,2917.48 11869,2917.48C11867.6,2917.48 11866.5,2914.05 11866.5,2909.82L11866.5,2811.95C11866.5,2807.72 11867.6,2804.29 11869,2804.29C11870.3,2804.29 11871.5,2807.72 11871.5,2811.95L11871.5,2909.82ZM11871.5,2753.23C11871.5,2757.46 11870.3,2760.89 11869,2760.89C11867.6,2760.89 11866.5,2757.46 11866.5,2753.23L11866.5,2704.3C11866.5,2684.66 11871.7,2668.71 11878.1,2668.71L11890.7,2668.71C11892.1,2668.71 11893.2,2672.15 11893.2,2676.37C11893.2,2680.6 11892.1,2684.03 11890.7,2684.03L11878.1,2684.03C11874.4,2684.03 11871.5,2693.11 11871.5,2704.3L11871.5,2753.23ZM11905.9,2684.03C11904.5,2684.03 11903.4,2680.6 11903.4,2676.37C11903.4,2672.15 11904.5,2668.71 11905.9,2668.71L11931.2,2668.71C11932.6,2668.71 11933.7,2672.15 11933.7,2676.37C11933.7,2680.6 11932.6,2684.03 11931.2,2684.03L11905.9,2684.03ZM11946.4,2684.03C11945,2684.03 11943.9,2680.6 11943.9,2676.37C11943.9,2672.15 11945,2668.71 11946.4,2668.71L11971.7,2668.71C11973.1,2668.71 11974.2,2672.15 11974.2,2676.37C11974.2,2680.6 11973.1,2684.03 11971.7,2684.03L11946.4,2684.03ZM11986.9,2684.03C11985.5,2684.03 11984.4,2680.6 11984.4,2676.37C11984.4,2672.15 11985.5,2668.71 11986.9,2668.71L12012.2,2668.71C12013.5,2668.71 12014.7,2672.15 12014.7,2676.37C12014.7,2680.6 12013.5,2684.03 12012.2,2684.03L11986.9,2684.03ZM12027.3,2684.03C12026,2684.03 12024.8,2680.6 12024.8,2676.37C12024.8,2672.15 12026,2668.71 12027.3,2668.71L12052.6,2668.71C12054,2668.71 12055.1,2672.15 12055.1,2676.37C12055.1,2680.6 12054,2684.03 12052.6,2684.03L12027.3,2684.03ZM12067.8,2684.03C12066.4,2684.03 12065.3,2680.6 12065.3,2676.37C12065.3,2672.15 12066.4,2668.71 12067.8,2668.71L12093.1,2668.71C12094.5,2668.71 12095.6,2672.15 12095.6,2676.37C12095.6,2680.6 12094.5,2684.03 12093.1,2684.03L12067.8,2684.03ZM12108.3,2684.03C12106.9,2684.03 12105.8,2680.6 12105.8,2676.37C12105.8,2672.15 12106.9,2668.71 12108.3,2668.71L12133.6,2668.71C12135,2668.71 12136.1,2672.15 12136.1,2676.37C12136.1,2680.6 12135,2684.03 12133.6,2684.03L12108.3,2684.03ZM12148.8,2684.03C12147.4,2684.03 12146.3,2680.6 12146.3,2676.37C12146.3,2672.15 12147.4,2668.71 12148.8,2668.71L12174,2668.71C12175.4,2668.71 12176.5,2672.15 12176.5,2676.37C12176.5,2680.6 12175.4,2684.03 12174,2684.03L12148.8,2684.03ZM12189.2,2684.03C12187.8,2684.03 12186.7,2680.6 12186.7,2676.37C12186.7,2672.15 12187.8,2668.71 12189.2,2668.71L12214.5,2668.71C12215.9,2668.71 12217,2672.15 12217,2676.37C12217,2680.6 12215.9,2684.03 12214.5,2684.03L12189.2,2684.03ZM12229.7,2684.03C12228.3,2684.03 12227.2,2680.6 12227.2,2676.37C12227.2,2672.15 12228.3,2668.71 12229.7,2668.71L12255,2668.71C12256.4,2668.71 12257.5,2672.15 12257.5,2676.37C12257.5,2680.6 12256.4,2684.03 12255,2684.03L12229.7,2684.03ZM12270.2,2684.03C12268.8,2684.03 12267.7,2680.6 12267.7,2676.37C12267.7,2672.15 12268.8,2668.71 12270.2,2668.71L12295.5,2668.71C12296.8,2668.71 12298,2672.15 12298,2676.37C12298,2680.6 12296.8,2684.03 12295.5,2684.03L12270.2,2684.03ZM12310.6,2684.03C12309.3,2684.03 12308.1,2680.6 12308.1,2676.37C12308.1,2672.15 12309.3,2668.71 12310.6,2668.71L12335.9,2668.71C12337.3,2668.71 12338.4,2672.15 12338.4,2676.37C12338.4,2680.6 12337.3,2684.03 12335.9,2684.03L12310.6,2684.03ZM12351.1,2684.03C12349.7,2684.03 12348.6,2680.6 12348.6,2676.37C12348.6,2672.15 12349.7,2668.71 12351.1,2668.71L12376.4,2668.71C12377.8,2668.71 12378.9,2672.15 12378.9,2676.37C12378.9,2680.6 12377.8,2684.03 12376.4,2684.03L12351.1,2684.03ZM12391.6,2684.03C12390.2,2684.03 12389.1,2680.6 12389.1,2676.37C12389.1,2672.15 12390.2,2668.71 12391.6,2668.71L12416.9,2668.71C12418.3,2668.71 12419.4,2672.15 12419.4,2676.37C12419.4,2680.6 12418.3,2684.03 12416.9,2684.03L12391.6,2684.03ZM12432.1,2684.03C12430.7,2684.03 12429.6,2680.6 12429.6,2676.37C12429.6,2672.15 12430.7,2668.71 12432.1,2668.71L12457.4,2668.71C12458.7,2668.71 12459.9,2672.15 12459.9,2676.37C12459.9,2680.6 12458.7,2684.03 12457.4,2684.03L12432.1,2684.03ZM12472.5,2684.03C12471.2,2684.03 12470,2680.6 12470,2676.37C12470,2672.15 12471.2,2668.71 12472.5,2668.71L12497.8,2668.71C12499.2,2668.71 12500.3,2672.15 12500.3,2676.37C12500.3,2680.6 12499.2,2684.03 12497.8,2684.03L12472.5,2684.03ZM12513,2684.03C12511.6,2684.03 12510.5,2680.6 12510.5,2676.37C12510.5,2672.15 12511.6,2668.71 12513,2668.71L12538.3,2668.71C12539.7,2668.71 12540.8,2672.15 12540.8,2676.37C12540.8,2680.6 12539.7,2684.03 12538.3,2684.03L12513,2684.03ZM12553.5,2684.03C12552.1,2684.03 12551,2680.6 12551,2676.37C12551,2672.15 12552.1,2668.71 12553.5,2668.71L12578.8,2668.71C12580.2,2668.71 12581.3,2672.15 12581.3,2676.37C12581.3,2680.6 12580.2,2684.03 12578.8,2684.03L12553.5,2684.03ZM12594,2684.03C12592.6,2684.03 12591.5,2680.6 12591.5,2676.37C12591.5,2672.15 12592.6,2668.71 12594,2668.71L12619.3,2668.71C12620.6,2668.71 12621.8,2672.15 12621.8,2676.37C12621.8,2680.6 12620.6,2684.03 12619.3,2684.03L12594,2684.03ZM12634.4,2684.03C12633.1,2684.03 12631.9,2680.6 12631.9,2676.37C12631.9,2672.15 12633.1,2668.71 12634.4,2668.71L12659.7,2668.71C12661.1,2668.71 12662.2,2672.15 12662.2,2676.37C12662.2,2680.6 12661.1,2684.03 12659.7,2684.03L12634.4,2684.03Z"/>
            </g>
            <g transform="matrix(0.170124,1.25254e-32,-1.17586e-33,0.674044,4019.23,-1780.25)">
                <path d="M3227.41,1337.79L3228.27,1337.79L3228.37,1342.32L3227.4,1342.32C3205.65,1342.32 3188,1347.47 3188,1353.81C3188,1360.15 3205.65,1365.3 3227.4,1365.3L3227.4,1369.83C3197.08,1369.83 3172.47,1362.65 3172.47,1353.81C3172.47,1344.97 3197.09,1337.79 3227.41,1337.79ZM3227.4,1369.83L3227.43,1365.3L3228.35,1365.3L3228.37,1369.83L3227.4,1369.83ZM3228.37,1369.83L3228.37,1365.3C3250.12,1365.3 3267.78,1360.15 3267.78,1353.81C3267.78,1347.47 3250.12,1342.32 3228.37,1342.32L3228.37,1337.79C3258.69,1337.79 3283.31,1344.97 3283.31,1353.81C3283.31,1362.65 3258.69,1369.83 3228.37,1369.83Z"/>
            </g>
            <g transform="matrix(0.170124,1.25254e-32,-1.17586e-33,0.674044,4053.55,-1780.25)">
                <path d="M3227.41,1337.79L3228.27,1337.79L3228.37,1342.32L3227.4,1342.32C3205.65,1342.32 3188,1347.47 3188,1353.81C3188,1360.15 3205.65,1365.3 3227.4,1365.3L3227.4,1369.83C3197.08,1369.83 3172.47,1362.65 3172.47,1353.81C3172.47,1344.97 3197.09,1337.79 3227.41,1337.79ZM3227.4,1369.83L3227.43,1365.3L3228.35,1365.3L3228.37,1369.83L3227.4,1369.83ZM3228.37,1369.83L3228.37,1365.3C3250.12,1365.3 3267.78,1360.15 3267.78,1353.81C3267.78,1347.47 3250.12,1342.32 3228.37,1342.32L3228.37,1337.79C3258.69,1337.79 3283.31,1344.97 3283.31,1353.81C3283.31,1362.65 3258.69,1369.83 3228.37,1369.83Z"/>
            </g>
            <g transform="matrix(0.170124,1.25254e-32,-1.17586e-33,0.674044,4087.88,-1780.25)">
                <path d="M3227.41,1337.79L3228.27,1337.79L3228.37,1342.32L3227.4,1342.32C3205.65,1342.32 3188,1347.47 3188,1353.81C3188,1360.15 3205.65,1365.3 3227.4,1365.3L3227.4,1369.83C3197.08,1369.83 3172.47,1362.65 3172.47,1353.81C3172.47,1344.97 3197.09,1337.79 3227.41,1337.79ZM3227.4,1369.83L3227.43,1365.3L3228.35,1365.3L3228.37,1369.83L3227.4,1369.83ZM3228.37,1369.83L3228.37,1365.3C3250.12,1365.3 3267.78,1360.15 3267.78,1353.81C3267.78,1347.47 3250.12,1342.32 3228.37,1342.32L3228.37,1337.79C3258.69,1337.79 3283.31,1344.97 3283.31,1353.81C3283.31,1362.65 3258.69,1369.83 3228.37,1369.83Z"/>
            </g>
            <g transform="matrix(0.170124,1.25254e-32,-1.17586e-33,0.674044,4122.2,-1780.25)">
                <path d="M3227.41,1337.79L3228.27,1337.79L3228.37,1342.32L3227.4,1342.32C3205.65,1342.32 3188,1347.47 3188,1353.81C3188,1360.15 3205.66,1365.3 3227.4,1365.3L3228.37,1365.3C3250.12,1365.3 3267.78,1360.15 3267.78,1353.81C3267.78,1347.47 3250.12,1342.32 3228.37,1342.32L3228.37,1337.79C3258.69,1337.79 3283.31,1344.97 3283.31,1353.81C3283.31,1362.65 3258.69,1369.83 3228.37,1369.83L3227.4,1369.83C3197.08,1369.83 3172.47,1362.65 3172.47,1353.81C3172.47,1344.97 3197.09,1337.79 3227.41,1337.79Z"/>
            </g>
            <g transform="matrix(0.39312,1.25254e-32,4.21489e-33,0.674044,3447.35,-1780.25)">
                <path d="M3278.9,1353.81C3278.9,1362.65 3268.25,1369.83 3255.13,1369.83L3200.64,1369.83C3187.52,1369.83 3176.87,1362.65 3176.87,1353.81C3176.87,1344.97 3187.52,1337.79 3200.64,1337.79L3255.13,1337.79C3268.25,1337.79 3278.9,1344.97 3278.9,1353.81ZM3272.18,1353.81C3272.18,1347.47 3264.54,1342.32 3255.13,1342.32L3200.64,1342.32C3191.23,1342.32 3183.59,1347.47 3183.59,1353.81C3183.59,1360.15 3191.23,1365.3 3200.64,1365.3L3255.13,1365.3C3264.54,1365.3 3272.18,1360.15 3272.18,1353.81Z"/>
            </g>
            <g transform="matrix(0.65812,1.25254e-32,1.06211e-32,0.674044,2660.17,-1780.25)">
                <path d="M3277.55,1353.81C3277.55,1362.65 3271.19,1369.83 3263.35,1369.83L3192.42,1369.83C3184.59,1369.83 3178.22,1362.65 3178.22,1353.81C3178.22,1344.97 3184.59,1337.79 3192.42,1337.79L3263.35,1337.79C3271.19,1337.79 3277.55,1344.97 3277.55,1353.81ZM3273.54,1353.81C3273.54,1347.47 3268.97,1342.32 3263.35,1342.32L3192.42,1342.32C3186.8,1342.32 3182.24,1347.47 3182.24,1353.81C3182.24,1360.15 3186.8,1365.3 3192.42,1365.3L3263.35,1365.3C3268.97,1365.3 3273.54,1360.15 3273.54,1353.81Z"/>
            </g>
            <g transform="matrix(3.98185e-18,0.0751416,-0.533887,3.77752e-17,5290.6,-1010.1)">
                <path d="M3241.92,991.034C3241.92,989.669 3251.02,988.56 3262.23,988.56C3273.44,988.56 3282.55,989.669 3282.55,991.034C3282.55,992.4 3273.44,993.509 3262.23,993.509C3251.02,993.509 3241.92,992.4 3241.92,991.034ZM3246.78,1012.33C3246.09,1010.97 3254.62,1009.79 3265.81,1009.71C3277,1009.62 3286.64,1010.66 3287.33,1012.02C3288.02,1013.39 3279.49,1014.56 3268.3,1014.65C3257.11,1014.73 3247.46,1013.69 3246.78,1012.33ZM3266.85,1033.63C3264.81,1032.29 3272.11,1031 3283.14,1030.75C3294.16,1030.5 3304.77,1031.39 3306.8,1032.73C3308.84,1034.07 3301.54,1035.37 3290.51,1035.61C3279.49,1035.86 3268.88,1034.97 3266.85,1033.63ZM3320.12,1054.4C3315.21,1053.17 3319.39,1051.69 3329.47,1051.09C3339.54,1050.49 3351.72,1051 3356.64,1052.23C3361.56,1053.45 3357.37,1054.94 3347.29,1055.54C3337.22,1056.13 3325.04,1055.62 3320.12,1054.4ZM3408.45,1072.63C3403.4,1071.41 3407.42,1069.93 3417.43,1069.31C3427.44,1068.69 3439.66,1069.18 3444.72,1070.4C3449.77,1071.62 3445.75,1073.11 3435.74,1073.73C3425.73,1074.34 3413.5,1073.85 3408.45,1072.63ZM3454.26,1092.08C3452.77,1090.72 3460.59,1089.48 3471.7,1089.3C3482.81,1089.12 3493.04,1090.07 3494.53,1091.42C3496.02,1092.77 3488.21,1094.02 3477.1,1094.2C3465.98,1094.38 3455.75,1093.43 3454.26,1092.08ZM3463.9,1112.85C3463.9,1111.49 3473,1110.38 3484.22,1110.38C3495.43,1110.38 3504.53,1111.49 3504.53,1112.85C3504.53,1114.22 3495.43,1115.33 3484.22,1115.33C3473,1115.33 3463.9,1114.22 3463.9,1112.85Z"/>
            </g>
            <g transform="matrix(3.04152e-18,0.0573965,-0.428134,3.02926e-17,5214.92,-972.858)">
                <path d="M3235.64,991.034C3235.64,989.331 3247.55,987.949 3262.23,987.949C3276.91,987.949 3288.83,989.331 3288.83,991.034C3288.83,992.737 3276.91,994.12 3262.23,994.12C3247.55,994.12 3235.64,992.737 3235.64,991.034ZM3242.9,1016.54C3241.81,1014.84 3252.8,1013.36 3267.44,1013.23C3282.07,1013.11 3294.85,1014.38 3295.95,1016.08C3297.04,1017.78 3286.05,1019.26 3271.41,1019.39C3256.77,1019.51 3244,1018.24 3242.9,1016.54ZM3276.09,1042.06C3272.4,1040.42 3280.95,1038.73 3295.16,1038.3C3309.37,1037.88 3323.89,1038.87 3327.58,1040.52C3331.26,1042.16 3322.71,1043.85 3308.5,1044.28C3294.3,1044.7 3279.77,1043.71 3276.09,1042.06ZM3368.7,1065.83C3361.03,1064.38 3364.95,1062.48 3377.46,1061.59C3389.97,1060.7 3406.36,1061.15 3414.04,1062.61C3421.72,1064.06 3417.79,1065.96 3405.28,1066.85C3392.77,1067.74 3376.38,1067.29 3368.7,1065.83ZM3442.93,1088.17C3440.45,1086.49 3450.18,1084.9 3464.64,1084.61C3479.11,1084.32 3492.87,1085.45 3495.35,1087.13C3497.84,1088.81 3488.11,1090.4 3473.64,1090.69C3459.17,1090.98 3445.41,1089.85 3442.93,1088.17ZM3457.62,1112.85C3457.62,1111.15 3469.54,1109.77 3484.22,1109.77C3498.89,1109.77 3510.81,1111.15 3510.81,1112.85C3510.81,1114.56 3498.89,1115.94 3484.22,1115.94C3469.54,1115.94 3457.62,1114.56 3457.62,1112.85Z"/>
            </g>
            <g transform="matrix(3.32497e-18,0.0627456,-0.240065,1.69858e-17,4952.4,-998.636)">
                <path d="M3237.9,991.034C3237.9,987.997 3248.8,985.531 3262.23,985.531C3275.66,985.531 3286.56,987.997 3286.56,991.034C3286.56,994.071 3275.66,996.537 3262.23,996.537C3248.8,996.537 3237.9,994.071 3237.9,991.034ZM3269.06,1038.19C3264.13,1035.37 3270.26,1032.17 3282.75,1031.05C3295.24,1029.93 3309.38,1031.32 3314.32,1034.14C3319.25,1036.97 3313.12,1040.17 3300.63,1041.29C3288.14,1042.4 3274,1041.02 3269.06,1038.19ZM3404.97,1074.38C3395.54,1072.21 3395.65,1068.73 3405.2,1066.59C3414.76,1064.46 3430.18,1064.48 3439.61,1066.64C3449.04,1068.81 3448.94,1072.29 3439.38,1074.43C3429.82,1076.56 3414.41,1076.54 3404.97,1074.38ZM3459.89,1112.85C3459.89,1109.82 3470.79,1107.35 3484.22,1107.35C3497.64,1107.35 3508.55,1109.82 3508.55,1112.85C3508.55,1115.89 3497.64,1118.36 3484.22,1118.36C3470.79,1118.36 3459.89,1115.89 3459.89,1112.85Z"/>
            </g>
            <g transform="matrix(2.75062e-18,0.051907,-0.175193,1.23957e-17,4848.4,-949.451)">
                <path d="M3232.82,991.034C3232.82,986.873 3246,983.494 3262.23,983.494C3278.46,983.494 3291.64,986.873 3291.64,991.034C3291.64,995.196 3278.46,998.575 3262.23,998.575C3246,998.575 3232.82,995.196 3232.82,991.034ZM3329.37,1061.43C3317.15,1058.69 3315.91,1053.92 3326.59,1050.79C3337.28,1047.66 3355.87,1047.34 3368.09,1050.08C3380.31,1052.82 3381.55,1057.59 3370.87,1060.72C3360.18,1063.85 3341.59,1064.17 3329.37,1061.43ZM3454.81,1112.85C3454.81,1108.69 3467.99,1105.31 3484.22,1105.31C3500.45,1105.31 3513.62,1108.69 3513.62,1112.85C3513.62,1117.02 3500.45,1120.39 3484.22,1120.39C3467.99,1120.39 3454.81,1117.02 3454.81,1112.85Z"/>
            </g>
            <g transform="matrix(4.23882e-18,0.0799909,-0.262694,1.85869e-17,4904.18,-1029.75)">
                <path d="M3243.15,991.034C3243.15,988.259 3251.7,986.005 3262.23,986.005C3272.76,986.005 3281.32,988.259 3281.32,991.034C3281.32,993.81 3272.76,996.063 3262.23,996.063C3251.7,996.063 3243.15,993.81 3243.15,991.034ZM3276.7,1039.57C3272.08,1037.08 3276.02,1034.07 3285.49,1032.85C3294.95,1031.63 3306.39,1032.67 3311,1035.17C3315.62,1037.66 3311.68,1040.67 3302.21,1041.89C3292.75,1043.11 3281.31,1042.07 3276.7,1039.57ZM3408.53,1074.02C3400.54,1072.22 3399.61,1069.04 3406.47,1066.93C3413.32,1064.83 3425.38,1064.58 3433.37,1066.39C3441.37,1068.19 3442.3,1071.37 3435.44,1073.48C3428.59,1075.59 3416.53,1075.83 3408.53,1074.02ZM3465.13,1112.85C3465.13,1110.08 3473.68,1107.83 3484.22,1107.83C3494.75,1107.83 3503.3,1110.08 3503.3,1112.85C3503.3,1115.63 3494.75,1117.88 3484.22,1117.88C3473.68,1117.88 3465.13,1115.63 3465.13,1112.85Z"/>
            </g>
            <g transform="matrix(7.15963e-18,0.13511,-0.689335,4.87739e-17,5344.38,-1243.73)">
                <path d="M3250.93,991.034C3250.93,989.977 3256,989.118 3262.23,989.118C3268.47,989.118 3273.53,989.977 3273.53,991.034C3273.53,992.092 3268.47,992.951 3262.23,992.951C3256,992.951 3250.93,992.092 3250.93,991.034ZM3257.04,1007.78C3256.15,1006.74 3260.44,1005.76 3266.61,1005.62C3272.79,1005.47 3278.52,1006.19 3279.4,1007.24C3280.29,1008.29 3276,1009.26 3269.83,1009.41C3263.65,1009.56 3257.92,1008.83 3257.04,1007.78ZM3286.37,1024.16C3283.39,1023.23 3285.42,1022.06 3290.9,1021.56C3296.38,1021.05 3303.24,1021.4 3306.22,1022.33C3309.2,1023.26 3307.17,1024.42 3301.7,1024.93C3296.22,1025.43 3289.35,1025.09 3286.37,1024.16ZM3352.29,1037.05C3347.7,1036.33 3347.38,1035.12 3351.59,1034.34C3355.8,1033.56 3362.96,1033.5 3367.56,1034.22C3372.15,1034.93 3372.47,1036.15 3368.26,1036.93C3364.05,1037.71 3356.89,1037.76 3352.29,1037.05ZM3412.26,1049.2C3409.18,1048.28 3411.09,1047.11 3416.51,1046.59C3421.93,1046.06 3428.83,1046.39 3431.91,1047.31C3434.99,1048.22 3433.09,1049.4 3427.67,1049.92C3422.25,1050.44 3415.35,1050.12 3412.26,1049.2ZM3446.11,1064.1C3444.56,1063.07 3448.2,1062.03 3454.24,1061.77C3460.28,1061.5 3466.45,1062.12 3467.99,1063.15C3469.54,1064.17 3465.9,1065.21 3459.86,1065.48C3453.82,1065.74 3447.66,1065.12 3446.11,1064.1ZM3463.09,1080.1C3462.35,1079.05 3466.77,1078.1 3472.96,1077.97C3479.15,1077.84 3484.78,1078.59 3485.53,1079.64C3486.27,1080.69 3481.85,1081.65 3475.66,1081.77C3469.47,1081.9 3463.84,1081.15 3463.09,1080.1ZM3470.82,1096.43C3470.53,1095.37 3475.35,1094.47 3481.58,1094.42C3487.8,1094.37 3493.1,1095.19 3493.39,1096.25C3493.68,1097.3 3488.86,1098.2 3482.63,1098.25C3476.4,1098.3 3471.11,1097.48 3470.82,1096.43ZM3472.92,1112.85C3472.92,1111.8 3477.98,1110.94 3484.22,1110.94C3490.45,1110.94 3495.51,1111.8 3495.51,1112.85C3495.51,1113.91 3490.45,1114.77 3484.22,1114.77C3477.98,1114.77 3472.92,1113.91 3472.92,1112.85Z"/>
            </g>
            <g transform="matrix(-2.00093e-19,0.00377596,3.58962,2.53983e-16,911.99,-687.221)">
                <path d="M3666.5,991.034C3666.5,990.831 3485.35,990.666 3262.23,990.666C3039.11,990.666 2857.96,990.831 2857.96,991.034C2857.96,1081.99 3079.95,1021.9 3079.95,1112.85C3079.95,1113.06 3261.1,1113.22 3484.22,1113.22C3707.34,1113.22 3888.48,1113.06 3888.48,1112.85C3888.48,1021.9 3666.5,1081.99 3666.5,991.034Z"/>
            </g>
            <g transform="matrix(3.71091e-18,-0.0700288,0.0606038,4.28802e-18,4728.51,-553.944)">
                <path d="M3271.83,1040.18C3292.61,1028.19 3318.2,1028.19 3338.97,1040.18L3360.99,1052.9C3381.76,1064.89 3394.56,1087.05 3394.56,1111.04L3394.56,1136.47C3394.56,1160.45 3381.76,1182.62 3360.99,1194.61L3338.97,1207.32C3318.2,1219.32 3292.61,1219.32 3271.83,1207.32L3249.81,1194.61C3229.04,1182.62 3216.24,1160.45 3216.24,1136.47L3216.24,1111.04C3216.24,1087.05 3229.04,1064.89 3249.81,1052.9L3271.83,1040.18ZM3293.63,1077.94L3271.61,1090.65C3264.33,1094.86 3259.84,1102.63 3259.84,1111.04L3259.84,1136.47C3259.84,1144.88 3264.33,1152.65 3271.61,1156.85L3293.63,1169.57C3300.92,1173.77 3309.89,1173.77 3317.17,1169.57L3339.19,1156.85C3346.48,1152.65 3350.96,1144.88 3350.96,1136.47L3350.96,1111.04C3350.96,1102.63 3346.48,1094.86 3339.19,1090.65L3317.17,1077.94C3309.89,1073.73 3300.91,1073.73 3293.63,1077.94Z"/>
            </g>
            <g transform="matrix(3.71091e-18,-0.0700288,0.0606038,4.28802e-18,4699.02,-532.779)">
                <path d="M3271.83,1040.18C3292.61,1028.19 3318.2,1028.19 3338.97,1040.18L3360.99,1052.9C3381.76,1064.89 3394.56,1087.05 3394.56,1111.04L3394.56,1136.47C3394.56,1160.45 3381.76,1182.62 3360.99,1194.61L3338.97,1207.32C3318.2,1219.32 3292.61,1219.32 3271.83,1207.32L3249.81,1194.61C3229.04,1182.62 3216.24,1160.45 3216.24,1136.47L3216.24,1111.04C3216.24,1087.05 3229.04,1064.89 3249.81,1052.9L3271.83,1040.18ZM3293.63,1077.94L3271.61,1090.65C3264.33,1094.86 3259.84,1102.63 3259.84,1111.04L3259.84,1136.47C3259.84,1144.88 3264.33,1152.65 3271.61,1156.85L3293.63,1169.57C3300.92,1173.77 3309.89,1173.77 3317.17,1169.57L3339.19,1156.85C3346.48,1152.65 3350.96,1144.88 3350.96,1136.47L3350.96,1111.04C3350.96,1102.63 3346.48,1094.86 3339.19,1090.65L3317.17,1077.94C3309.89,1073.73 3300.91,1073.73 3293.63,1077.94Z"/>
            </g>
            <g transform="matrix(3.71091e-18,-0.0700288,0.0606038,4.28802e-18,4674.85,-574.383)">
                <path d="M3271.83,1040.18C3292.61,1028.19 3318.2,1028.19 3338.97,1040.18L3360.99,1052.9C3381.76,1064.89 3394.56,1087.05 3394.56,1111.04L3394.56,1136.47C3394.56,1160.45 3381.76,1182.62 3360.99,1194.61L3338.97,1207.32C3318.2,1219.32 3292.61,1219.32 3271.83,1207.32L3249.81,1194.61C3229.04,1182.62 3216.24,1160.45 3216.24,1136.47L3216.24,1111.04C3216.24,1087.05 3229.04,1064.89 3249.81,1052.9L3271.83,1040.18ZM3293.63,1077.94L3271.61,1090.65C3264.33,1094.86 3259.84,1102.63 3259.84,1111.04L3259.84,1136.47C3259.84,1144.88 3264.33,1152.65 3271.61,1156.85L3293.63,1169.57C3300.92,1173.77 3309.89,1173.77 3317.17,1169.57L3339.19,1156.85C3346.48,1152.65 3350.96,1144.88 3350.96,1136.47L3350.96,1111.04C3350.96,1102.63 3346.48,1094.86 3339.19,1090.65L3317.17,1077.94C3309.89,1073.73 3300.91,1073.73 3293.63,1077.94Z"/>
            </g>
            <g transform="matrix(3.71091e-18,-0.0700288,0.0606038,4.28802e-18,4663.46,-541.58)">
                <path d="M3271.83,1040.18C3292.61,1028.19 3318.2,1028.19 3338.97,1040.18L3360.99,1052.9C3381.76,1064.89 3394.56,1087.05 3394.56,1111.04L3394.56,1136.47C3394.56,1160.45 3381.76,1182.62 3360.99,1194.61L3338.97,1207.32C3318.2,1219.32 3292.61,1219.32 3271.83,1207.32L3249.81,1194.61C3229.04,1182.62 3216.24,1160.45 3216.24,1136.47L3216.24,1111.04C3216.24,1087.05 3229.04,1064.89 3249.81,1052.9L3271.83,1040.18ZM3293.63,1077.94L3271.61,1090.65C3264.33,1094.86 3259.84,1102.63 3259.84,1111.04L3259.84,1136.47C3259.84,1144.88 3264.33,1152.65 3271.61,1156.85L3293.63,1169.57C3300.92,1173.77 3309.89,1173.77 3317.17,1169.57L3339.19,1156.85C3346.48,1152.65 3350.96,1144.88 3350.96,1136.47L3350.96,1111.04C3350.96,1102.63 3346.48,1094.86 3339.19,1090.65L3317.17,1077.94C3309.89,1073.73 3300.91,1073.73 3293.63,1077.94Z"/>
            </g>
            <g transform="matrix(3.71091e-18,-0.0700288,0.0606038,4.28802e-18,4651.89,-562.354)">
                <path d="M3271.83,1040.18C3292.61,1028.19 3318.2,1028.19 3338.97,1040.18L3360.99,1052.9C3381.76,1064.89 3394.56,1087.05 3394.56,1111.04L3394.56,1136.47C3394.56,1160.45 3381.76,1182.62 3360.99,1194.61L3338.97,1207.32C3318.2,1219.32 3292.61,1219.32 3271.83,1207.32L3249.81,1194.61C3229.04,1182.62 3216.24,1160.45 3216.24,1136.47L3216.24,1111.04C3216.24,1087.05 3229.04,1064.89 3249.81,1052.9L3271.83,1040.18ZM3293.63,1077.94L3271.61,1090.65C3264.33,1094.86 3259.84,1102.63 3259.84,1111.04L3259.84,1136.47C3259.84,1144.88 3264.33,1152.65 3271.61,1156.85L3293.63,1169.57C3300.92,1173.77 3309.89,1173.77 3317.17,1169.57L3339.19,1156.85C3346.48,1152.65 3350.96,1144.88 3350.96,1136.47L3350.96,1111.04C3350.96,1102.63 3346.48,1094.86 3339.19,1090.65L3317.17,1077.94C3309.89,1073.73 3300.91,1073.73 3293.63,1077.94Z"/>
            </g>
            <g transform="matrix(3.71091e-18,-0.0700288,0.0606038,4.28802e-18,4621.75,-517.25)">
                <path d="M3271.83,1040.18C3292.61,1028.19 3318.2,1028.19 3338.97,1040.18L3360.99,1052.9C3381.76,1064.89 3394.56,1087.05 3394.56,1111.04L3394.56,1136.47C3394.56,1160.45 3381.76,1182.62 3360.99,1194.61L3338.97,1207.32C3318.2,1219.32 3292.61,1219.32 3271.83,1207.32L3249.81,1194.61C3229.04,1182.62 3216.24,1160.45 3216.24,1136.47L3216.24,1111.04C3216.24,1087.05 3229.04,1064.89 3249.81,1052.9L3271.83,1040.18ZM3293.63,1077.94L3271.61,1090.65C3264.33,1094.86 3259.84,1102.63 3259.84,1111.04L3259.84,1136.47C3259.84,1144.88 3264.33,1152.65 3271.61,1156.85L3293.63,1169.57C3300.92,1173.77 3309.89,1173.77 3317.17,1169.57L3339.19,1156.85C3346.48,1152.65 3350.96,1144.88 3350.96,1136.47L3350.96,1111.04C3350.96,1102.63 3346.48,1094.86 3339.19,1090.65L3317.17,1077.94C3309.89,1073.73 3300.91,1073.73 3293.63,1077.94Z"/>
            </g>
            <g transform="matrix(3.71091e-18,-0.0700288,0.0606038,4.28802e-18,4612.05,-548.024)">
                <path d="M3271.83,1040.18C3292.61,1028.19 3318.2,1028.19 3338.97,1040.18L3360.99,1052.9C3381.76,1064.89 3394.56,1087.05 3394.56,1111.04L3394.56,1136.47C3394.56,1160.45 3381.76,1182.62 3360.99,1194.61L3338.97,1207.32C3318.2,1219.32 3292.61,1219.32 3271.83,1207.32L3249.81,1194.61C3229.04,1182.62 3216.24,1160.45 3216.24,1136.47L3216.24,1111.04C3216.24,1087.05 3229.04,1064.89 3249.81,1052.9L3271.83,1040.18ZM3293.63,1077.94L3271.61,1090.65C3264.33,1094.86 3259.84,1102.63 3259.84,1111.04L3259.84,1136.47C3259.84,1144.88 3264.33,1152.65 3271.61,1156.85L3293.63,1169.57C3300.92,1173.77 3309.89,1173.77 3317.17,1169.57L3339.19,1156.85C3346.48,1152.65 3350.96,1144.88 3350.96,1136.47L3350.96,1111.04C3350.96,1102.63 3346.48,1094.86 3339.19,1090.65L3317.17,1077.94C3309.89,1073.73 3300.91,1073.73 3293.63,1077.94Z"/>
            </g>
            <g transform="matrix(3.71091e-18,-0.0700288,0.0606038,4.28802e-18,4580.63,-537.97)">
                <path d="M3271.83,1040.18C3292.61,1028.19 3318.2,1028.19 3338.97,1040.18L3360.99,1052.9C3381.76,1064.89 3394.56,1087.05 3394.56,1111.04L3394.56,1136.47C3394.56,1160.45 3381.76,1182.62 3360.99,1194.61L3338.97,1207.32C3318.2,1219.32 3292.61,1219.32 3271.83,1207.32L3249.81,1194.61C3229.04,1182.62 3216.24,1160.45 3216.24,1136.47L3216.24,1111.04C3216.24,1087.05 3229.04,1064.89 3249.81,1052.9L3271.83,1040.18ZM3293.63,1077.94L3271.61,1090.65C3264.33,1094.86 3259.84,1102.63 3259.84,1111.04L3259.84,1136.47C3259.84,1144.88 3264.33,1152.65 3271.61,1156.85L3293.63,1169.57C3300.92,1173.77 3309.89,1173.77 3317.17,1169.57L3339.19,1156.85C3346.48,1152.65 3350.96,1144.88 3350.96,1136.47L3350.96,1111.04C3350.96,1102.63 3346.48,1094.86 3339.19,1090.65L3317.17,1077.94C3309.89,1073.73 3300.91,1073.73 3293.63,1077.94Z"/>
            </g>
            <g transform="matrix(3.71091e-18,-0.0700288,0.0606038,4.28802e-18,4598.14,-571.519)">
                <path d="M3271.83,1040.18C3292.61,1028.19 3318.2,1028.19 3338.97,1040.18L3360.99,1052.9C3381.76,1064.89 3394.56,1087.05 3394.56,1111.04L3394.56,1136.47C3394.56,1160.45 3381.76,1182.62 3360.99,1194.61L3338.97,1207.32C3318.2,1219.32 3292.61,1219.32 3271.83,1207.32L3249.81,1194.61C3229.04,1182.62 3216.24,1160.45 3216.24,1136.47L3216.24,1111.04C3216.24,1087.05 3229.04,1064.89 3249.81,1052.9L3271.83,1040.18ZM3293.63,1077.94L3271.61,1090.65C3264.33,1094.86 3259.84,1102.63 3259.84,1111.04L3259.84,1136.47C3259.84,1144.88 3264.33,1152.65 3271.61,1156.85L3293.63,1169.57C3300.92,1173.77 3309.89,1173.77 3317.17,1169.57L3339.19,1156.85C3346.48,1152.65 3350.96,1144.88 3350.96,1136.47L3350.96,1111.04C3350.96,1102.63 3346.48,1094.86 3339.19,1090.65L3317.17,1077.94C3309.89,1073.73 3300.91,1073.73 3293.63,1077.94Z"/>
            </g>
            <g transform="matrix(3.71091e-18,-0.0700288,0.0606038,4.28802e-18,4546.9,-562.631)">
                <path d="M3271.83,1040.18C3292.61,1028.19 3318.2,1028.19 3338.97,1040.18L3360.99,1052.9C3381.76,1064.89 3394.56,1087.05 3394.56,1111.04L3394.56,1136.47C3394.56,1160.45 3381.76,1182.62 3360.99,1194.61L3338.97,1207.32C3318.2,1219.32 3292.61,1219.32 3271.83,1207.32L3249.81,1194.61C3229.04,1182.62 3216.24,1160.45 3216.24,1136.47L3216.24,1111.04C3216.24,1087.05 3229.04,1064.89 3249.81,1052.9L3271.83,1040.18ZM3293.63,1077.94L3271.61,1090.65C3264.33,1094.86 3259.84,1102.63 3259.84,1111.04L3259.84,1136.47C3259.84,1144.88 3264.33,1152.65 3271.61,1156.85L3293.63,1169.57C3300.92,1173.77 3309.89,1173.77 3317.17,1169.57L3339.19,1156.85C3346.48,1152.65 3350.96,1144.88 3350.96,1136.47L3350.96,1111.04C3350.96,1102.63 3346.48,1094.86 3339.19,1090.65L3317.17,1077.94C3309.89,1073.73 3300.91,1073.73 3293.63,1077.94Z"/>
            </g>
            <g transform="matrix(3.71091e-18,-0.0700288,0.0606038,4.28802e-18,4538.43,-518.747)">
                <path d="M3271.83,1040.18C3292.61,1028.19 3318.2,1028.19 3338.97,1040.18L3360.99,1052.9C3381.76,1064.89 3394.56,1087.05 3394.56,1111.04L3394.56,1136.47C3394.56,1160.45 3381.76,1182.62 3360.99,1194.61L3338.97,1207.32C3318.2,1219.32 3292.61,1219.32 3271.83,1207.32L3249.81,1194.61C3229.04,1182.62 3216.24,1160.45 3216.24,1136.47L3216.24,1111.04C3216.24,1087.05 3229.04,1064.89 3249.81,1052.9L3271.83,1040.18ZM3293.63,1077.94L3271.61,1090.65C3264.33,1094.86 3259.84,1102.63 3259.84,1111.04L3259.84,1136.47C3259.84,1144.88 3264.33,1152.65 3271.61,1156.85L3293.63,1169.57C3300.92,1173.77 3309.89,1173.77 3317.17,1169.57L3339.19,1156.85C3346.48,1152.65 3350.96,1144.88 3350.96,1136.47L3350.96,1111.04C3350.96,1102.63 3346.48,1094.86 3339.19,1090.65L3317.17,1077.94C3309.89,1073.73 3300.91,1073.73 3293.63,1077.94Z"/>
            </g>
            <g transform="matrix(3.71091e-18,-0.0700288,0.0606038,4.28802e-18,4504.43,-541.312)">
                <path d="M3271.83,1040.18C3292.61,1028.19 3318.2,1028.19 3338.97,1040.18L3360.99,1052.9C3381.76,1064.89 3394.56,1087.05 3394.56,1111.04L3394.56,1136.47C3394.56,1160.45 3381.76,1182.62 3360.99,1194.61L3338.97,1207.32C3318.2,1219.32 3292.61,1219.32 3271.83,1207.32L3249.81,1194.61C3229.04,1182.62 3216.24,1160.45 3216.24,1136.47L3216.24,1111.04C3216.24,1087.05 3229.04,1064.89 3249.81,1052.9L3271.83,1040.18ZM3293.63,1077.94L3271.61,1090.65C3264.33,1094.86 3259.84,1102.63 3259.84,1111.04L3259.84,1136.47C3259.84,1144.88 3264.33,1152.65 3271.61,1156.85L3293.63,1169.57C3300.92,1173.77 3309.89,1173.77 3317.17,1169.57L3339.19,1156.85C3346.48,1152.65 3350.96,1144.88 3350.96,1136.47L3350.96,1111.04C3350.96,1102.63 3346.48,1094.86 3339.19,1090.65L3317.17,1077.94C3309.89,1073.73 3300.91,1073.73 3293.63,1077.94Z"/>
            </g>
        </g>
    </g>
</svg>
