<?xml version="1.0" encoding="UTF-8" standalone="no"?>
<!DOCTYPE svg PUBLIC "-//W3C//DTD SVG 1.1//EN" "http://www.w3.org/Graphics/SVG/1.1/DTD/svg11.dtd">
<svg width="100%" height="100%" viewBox="0 0 260 140" version="1.1" xmlns="http://www.w3.org/2000/svg" xmlns:xlink="http://www.w3.org/1999/xlink" xml:space="preserve" xmlns:serif="http://www.serif.com/" style="fill-rule:evenodd;clip-rule:evenodd;stroke-linejoin:round;stroke-miterlimit:2;">
    <g transform="matrix(1,0,0,1,-9351.48,-584.036)">
        <g id="Artboard4" transform="matrix(0.473107,0,0,0.409433,7239.41,964.353)">
            <rect x="4464.26" y="-928.886" width="549.559" height="341.936" style="fill:none;"/>
            <g transform="matrix(6.23941,9.21621e-32,2.95823e-31,6.73848,-13535.8,-6325.96)">
                <path d="M2939.12,820.6L2939.12,836.644C2939.12,836.978 2938.87,837.248 2938.55,837.248L2922.51,837.248C2922.2,837.248 2921.94,836.978 2921.94,836.644L2921.94,820.6C2921.94,820.266 2922.2,819.996 2922.51,819.996L2938.55,819.996C2938.87,819.996 2939.12,820.266 2939.12,820.6ZM2937.99,821.204C2937.99,821.204 2923.07,821.204 2923.07,821.204C2923.07,821.204 2923.07,836.04 2923.07,836.04C2923.07,836.04 2937.99,836.04 2937.99,836.04L2937.99,821.204Z" style="fill:white;"/>
            </g>
            <g transform="matrix(3.72423,5.50104e-32,1.76573e-31,4.02211,-6083.67,-4080.26)">
                <path d="M2937.35,821.011C2937.14,821.011 2936.97,820.827 2936.97,820.6C2936.97,820.373 2937.14,820.189 2937.35,820.189L2938.55,820.189C2938.76,820.189 2938.94,820.373 2938.94,820.6L2938.94,822.204C2938.94,822.431 2938.76,822.615 2938.55,822.615C2938.34,822.615 2938.17,822.431 2938.17,822.204C2938.17,822.204 2938.17,821.011 2938.17,821.011L2937.35,821.011ZM2938.17,824.343C2938.17,824.116 2938.34,823.932 2938.55,823.932C2938.76,823.932 2938.94,824.116 2938.94,824.343L2938.94,827.552C2938.94,827.779 2938.76,827.964 2938.55,827.964C2938.34,827.964 2938.17,827.779 2938.17,827.552L2938.17,824.343ZM2938.17,829.692C2938.17,829.465 2938.34,829.28 2938.55,829.28C2938.76,829.28 2938.94,829.465 2938.94,829.692L2938.94,832.9C2938.94,833.127 2938.76,833.312 2938.55,833.312C2938.34,833.312 2938.17,833.127 2938.17,832.9L2938.17,829.692ZM2938.17,835.04C2938.17,834.813 2938.34,834.628 2938.55,834.628C2938.76,834.628 2938.94,834.813 2938.94,835.04L2938.94,836.644C2938.94,836.871 2938.76,837.055 2938.55,837.055L2937.35,837.055C2937.14,837.055 2936.97,836.871 2936.97,836.644C2936.97,836.417 2937.14,836.233 2937.35,836.233C2937.35,836.233 2938.17,836.233 2938.17,836.233L2938.17,835.04ZM2935.74,836.233C2935.96,836.233 2936.13,836.417 2936.13,836.644C2936.13,836.871 2935.96,837.055 2935.74,837.055L2933.34,837.055C2933.13,837.055 2932.95,836.871 2932.95,836.644C2932.95,836.417 2933.13,836.233 2933.34,836.233L2935.74,836.233ZM2931.73,836.233C2931.95,836.233 2932.12,836.417 2932.12,836.644C2932.12,836.871 2931.95,837.055 2931.73,837.055L2929.33,837.055C2929.12,837.055 2928.94,836.871 2928.94,836.644C2928.94,836.417 2929.12,836.233 2929.33,836.233L2931.73,836.233ZM2927.72,836.233C2927.93,836.233 2928.11,836.417 2928.11,836.644C2928.11,836.871 2927.93,837.055 2927.72,837.055L2925.32,837.055C2925.1,837.055 2924.93,836.871 2924.93,836.644C2924.93,836.417 2925.1,836.233 2925.32,836.233L2927.72,836.233ZM2923.71,836.233C2923.92,836.233 2924.1,836.417 2924.1,836.644C2924.1,836.871 2923.92,837.055 2923.71,837.055L2922.51,837.055C2922.3,837.055 2922.12,836.871 2922.12,836.644L2922.12,835.04C2922.12,834.813 2922.3,834.628 2922.51,834.628C2922.72,834.628 2922.89,834.813 2922.89,835.04C2922.89,835.04 2922.89,836.233 2922.89,836.233L2923.71,836.233ZM2922.89,832.9C2922.89,833.127 2922.72,833.312 2922.51,833.312C2922.3,833.312 2922.12,833.127 2922.12,832.9L2922.12,829.692C2922.12,829.465 2922.3,829.28 2922.51,829.28C2922.72,829.28 2922.89,829.465 2922.89,829.692L2922.89,832.9ZM2922.89,827.552C2922.89,827.779 2922.72,827.964 2922.51,827.964C2922.3,827.964 2922.12,827.779 2922.12,827.552L2922.12,824.343C2922.12,824.116 2922.3,823.932 2922.51,823.932C2922.72,823.932 2922.89,824.116 2922.89,824.343L2922.89,827.552ZM2922.89,822.204C2922.89,822.431 2922.72,822.615 2922.51,822.615C2922.3,822.615 2922.12,822.431 2922.12,822.204L2922.12,820.6C2922.12,820.373 2922.3,820.189 2922.51,820.189L2923.71,820.189C2923.92,820.189 2924.1,820.373 2924.1,820.6C2924.1,820.827 2923.92,821.011 2923.71,821.011C2923.71,821.011 2922.89,821.011 2922.89,821.011L2922.89,822.204ZM2925.32,821.011C2925.1,821.011 2924.93,820.827 2924.93,820.6C2924.93,820.373 2925.1,820.189 2925.32,820.189L2927.72,820.189C2927.93,820.189 2928.11,820.373 2928.11,820.6C2928.11,820.827 2927.93,821.011 2927.72,821.011L2925.32,821.011ZM2929.33,821.011C2929.12,821.011 2928.94,820.827 2928.94,820.6C2928.94,820.373 2929.12,820.189 2929.33,820.189L2931.73,820.189C2931.95,820.189 2932.12,820.373 2932.12,820.6C2932.12,820.827 2931.95,821.011 2931.73,821.011L2929.33,821.011ZM2933.34,821.011C2933.13,821.011 2932.95,820.827 2932.95,820.6C2932.95,820.373 2933.13,820.189 2933.34,820.189L2935.74,820.189C2935.96,820.189 2936.13,820.373 2936.13,820.6C2936.13,820.827 2935.96,821.011 2935.74,821.011L2933.34,821.011Z" style="fill:white;"/>
            </g>
            <g transform="matrix(1.26163,0,0,1.45784,-7099.36,-852.459)">
                <path d="M9441.65,44.298C9441.65,44.924 9441.14,45.433 9440.51,45.433C9439.88,45.433 9439.38,44.924 9439.38,44.298C9439.38,42.985 9439.53,41.707 9439.82,40.483C9439.97,39.874 9440.58,39.498 9441.19,39.644C9441.8,39.79 9442.18,40.403 9442.03,41.012C9441.78,42.066 9441.65,43.167 9441.65,44.298ZM9443.72,36.947C9443.39,37.481 9442.69,37.648 9442.16,37.32C9441.62,36.992 9441.46,36.293 9441.78,35.759C9443.13,33.565 9444.98,31.713 9447.18,30.365C9447.71,30.037 9448.41,30.204 9448.74,30.738C9449.07,31.271 9448.9,31.971 9448.37,32.299C9446.48,33.46 9444.88,35.056 9443.72,36.947ZM9452.43,30.612C9451.82,30.758 9451.21,30.382 9451.06,29.773C9450.92,29.164 9451.29,28.551 9451.9,28.405C9453.13,28.112 9454.4,27.956 9455.72,27.956C9457.03,27.956 9458.31,28.112 9459.53,28.405C9460.14,28.551 9460.52,29.164 9460.37,29.773C9460.23,30.382 9459.61,30.758 9459,30.612C9457.95,30.359 9456.85,30.226 9455.72,30.226C9454.59,30.226 9453.49,30.359 9452.43,30.612ZM9463.07,32.299C9462.53,31.971 9462.37,31.271 9462.7,30.738C9463.02,30.204 9463.72,30.037 9464.26,30.365C9466.45,31.713 9468.3,33.565 9469.65,35.759C9469.98,36.293 9469.81,36.992 9469.28,37.32C9468.74,37.648 9468.05,37.481 9467.72,36.947C9466.56,35.056 9464.96,33.46 9463.07,32.299ZM9469.4,41.012C9469.26,40.403 9469.63,39.79 9470.24,39.644C9470.85,39.498 9471.47,39.874 9471.61,40.483C9471.9,41.707 9472.06,42.985 9472.06,44.298C9472.06,44.924 9471.55,45.433 9470.93,45.433C9470.3,45.433 9469.79,44.924 9469.79,44.298C9469.79,43.167 9469.66,42.066 9469.4,41.012Z" style="fill:white;"/>
            </g>
            <g transform="matrix(2.11369,0,0,2.4424,-15237.5,-918.243)">
                <path d="M9442.18,44.298C9442.18,45.218 9441.43,45.965 9440.51,45.965C9439.59,45.965 9438.84,45.218 9438.84,44.298C9438.84,34.985 9446.4,27.424 9455.72,27.424C9465.03,27.424 9472.59,34.985 9472.59,44.298C9472.59,45.218 9471.84,45.965 9470.93,45.965C9470.01,45.965 9469.26,45.218 9469.26,44.298C9469.26,36.825 9463.19,30.758 9455.72,30.758C9448.24,30.758 9442.18,36.825 9442.18,44.298Z" style="fill:white;"/>
            </g>
            <g transform="matrix(3.10677e-17,0.586279,-0.507374,3.58993e-17,5139.39,-2684.09)">
                <path d="M3278.95,1053.55C3295.32,1044.1 3315.49,1044.1 3331.85,1053.55L3352.97,1065.75C3369.34,1075.2 3379.42,1092.66 3379.42,1111.56L3379.42,1135.94C3379.42,1154.85 3369.34,1172.31 3352.97,1181.76L3331.85,1193.95C3315.49,1203.4 3295.32,1203.4 3278.95,1193.95L3257.83,1181.76C3241.47,1172.31 3231.38,1154.85 3231.38,1135.94L3231.38,1111.56C3231.38,1092.66 3241.47,1075.2 3257.83,1065.75L3278.95,1053.55ZM3285.61,1065.09L3264.49,1077.28C3252.25,1084.35 3244.7,1097.42 3244.7,1111.56L3244.7,1135.94C3244.7,1150.09 3252.25,1163.15 3264.49,1170.22L3285.61,1182.42C3297.86,1189.49 3312.95,1189.49 3325.19,1182.42L3346.31,1170.22C3358.56,1163.15 3366.1,1150.09 3366.1,1135.94L3366.1,1111.56C3366.1,1097.42 3358.56,1084.35 3346.31,1077.28L3325.19,1065.09C3312.95,1058.02 3297.86,1058.02 3285.61,1065.09Z" style="fill:white;"/>
            </g>
            <g transform="matrix(1.1656e-17,0.219961,-0.190358,1.34688e-17,4717.01,-1518.38)">
                <path d="M3273.62,1056.31C3293.29,1044.95 3317.52,1044.95 3337.19,1056.31L3347.92,1062.51C3367.59,1073.86 3379.7,1094.85 3379.7,1117.56L3379.7,1129.95C3379.7,1152.66 3367.59,1173.64 3347.92,1185L3337.19,1191.2C3317.52,1202.55 3293.29,1202.55 3273.62,1191.2L3262.89,1185C3243.22,1173.64 3231.1,1152.66 3231.1,1129.95L3231.1,1117.56C3231.1,1094.85 3243.22,1073.86 3262.89,1062.51L3273.62,1056.31ZM3280.56,1068.33L3269.83,1074.53C3254.45,1083.4 3244.98,1099.8 3244.98,1117.56L3244.98,1129.95C3244.98,1147.7 3254.45,1164.1 3269.83,1172.98L3280.56,1179.18C3295.93,1188.05 3314.87,1188.05 3330.25,1179.18L3340.98,1172.98C3356.35,1164.1 3365.82,1147.7 3365.82,1129.95L3365.82,1117.56C3365.82,1099.8 3356.35,1083.4 3340.98,1074.53L3330.25,1068.33C3314.87,1059.45 3295.93,1059.45 3280.56,1068.33Z" style="fill:white;"/>
            </g>
            <g transform="matrix(2.03855e-17,0.384695,-0.33292,2.35558e-17,4866.13,-1973.31)">
                <path d="M3280.88,1055.55C3296.05,1046.79 3314.75,1046.79 3329.93,1055.55L3352.21,1068.41C3367.38,1077.17 3376.73,1093.37 3376.73,1110.89L3376.73,1136.62C3376.73,1154.14 3367.38,1170.33 3352.21,1179.09L3329.93,1191.96C3314.75,1200.72 3296.05,1200.72 3280.88,1191.96L3258.6,1179.09C3243.42,1170.33 3234.07,1154.14 3234.07,1136.62L3234.07,1110.89C3234.07,1093.37 3243.42,1077.17 3258.6,1068.41L3280.88,1055.55ZM3284.85,1062.42L3262.57,1075.29C3249.85,1082.63 3242.01,1096.2 3242.01,1110.89L3242.01,1136.62C3242.01,1151.3 3249.85,1164.88 3262.57,1172.22L3284.85,1185.08C3297.57,1192.43 3313.24,1192.43 3325.96,1185.08L3348.24,1172.22C3360.96,1164.88 3368.79,1151.3 3368.79,1136.62L3368.79,1110.89C3368.79,1096.2 3360.96,1082.63 3348.24,1075.29L3325.96,1062.42C3313.24,1055.08 3297.57,1055.08 3284.85,1062.42Z" style="fill:white;"/>
            </g>
            <g transform="matrix(-3.88241e-17,-0.73265,-1.07949,7.63796e-17,5861.52,1724.86)">
                <path d="M3375.02,1084.86C3375.02,1084.13 3374.01,1083.54 3372.76,1083.54C3371.52,1083.54 3370.5,1084.13 3370.5,1084.86L3370.5,1091.34C3370.5,1092.08 3371.52,1092.67 3372.76,1092.67C3374.01,1092.67 3375.02,1092.08 3375.02,1091.34L3375.02,1084.86ZM3375.02,1104.31C3375.02,1103.58 3374.01,1102.98 3372.76,1102.98C3371.52,1102.98 3370.5,1103.58 3370.5,1104.31L3370.5,1117.27C3370.5,1118 3371.52,1118.6 3372.76,1118.6C3374.01,1118.6 3375.02,1118 3375.02,1117.27L3375.02,1104.31ZM3375.02,1130.23C3375.02,1129.5 3374.01,1128.91 3372.76,1128.91C3371.52,1128.91 3370.5,1129.5 3370.5,1130.23L3370.5,1143.2C3370.5,1143.93 3371.52,1144.52 3372.76,1144.52C3374.01,1144.52 3375.02,1143.93 3375.02,1143.2L3375.02,1130.23ZM3375.02,1156.16C3375.02,1155.43 3374.01,1154.84 3372.76,1154.84C3371.52,1154.84 3370.5,1155.43 3370.5,1156.16L3370.5,1162.64C3370.5,1163.38 3371.52,1163.97 3372.76,1163.97C3374.01,1163.97 3375.02,1163.38 3375.02,1162.64L3375.02,1156.16Z" style="fill:white;"/>
            </g>
        </g>
    </g>
</svg>
