<svg viewBox="0 0 140 140" xmlns="http://www.w3.org/2000/svg">
<path fill-rule="evenodd" clip-rule="evenodd" d="M19.2495 8.7045C16.4526 8.7045 13.7704 9.81554 11.7927 11.7932C9.81505 13.7708 8.70401 16.4531 8.70401 19.25V33.75C8.70401 35.934 6.9335 37.7045 4.74947 37.7045C2.56543 37.7045 0.794922 35.934 0.794922 33.75V19.25C0.794922 14.3555 2.73923 9.66152 6.20013 6.20062C9.66103 2.73972 14.355 0.79541 19.2495 0.79541H33.7495C35.9335 0.79541 37.704 2.56592 37.704 4.74996C37.704 6.93399 35.9335 8.7045 33.7495 8.7045H19.2495ZM102.295 4.74996C102.295 2.56592 104.065 0.79541 106.249 0.79541H120.749C125.644 0.79541 130.338 2.73972 133.799 6.20062C137.26 9.66152 139.204 14.3555 139.204 19.25V33.75C139.204 35.934 137.433 37.7045 135.249 37.7045C133.065 37.7045 131.295 35.934 131.295 33.75V19.25C131.295 16.4531 130.184 13.7708 128.206 11.7932C126.229 9.81554 123.546 8.7045 120.749 8.7045H106.249C104.065 8.7045 102.295 6.93399 102.295 4.74996ZM40.9995 37.7045C39.1794 37.7045 37.704 39.1799 37.704 41V62.75C37.704 64.57 39.1794 66.0454 40.9995 66.0454H62.7495C64.5695 66.0454 66.0449 64.57 66.0449 62.75V41C66.0449 39.1799 64.5695 37.7045 62.7495 37.7045H40.9995ZM29.7949 41C29.7949 34.8119 34.8114 29.7954 40.9995 29.7954H62.7495C68.9376 29.7954 73.954 34.8119 73.954 41V62.75C73.954 68.9381 68.9376 73.9545 62.7495 73.9545H40.9995C34.8114 73.9545 29.7949 68.9381 29.7949 62.75V41ZM106.249 29.7954C108.433 29.7954 110.204 31.5659 110.204 33.75V41C110.204 43.184 108.433 44.9545 106.249 44.9545C104.065 44.9545 102.295 43.184 102.295 41V33.75C102.295 31.5659 104.065 29.7954 106.249 29.7954ZM106.249 66.0454C108.433 66.0454 110.204 67.8159 110.204 70V99C110.204 101.972 109.024 104.821 106.922 106.923C104.821 109.024 101.971 110.204 98.9995 110.204H69.9995C67.8154 110.204 66.0449 108.434 66.0449 106.25C66.0449 104.066 67.8154 102.295 69.9995 102.295H98.9995C99.8735 102.295 100.712 101.948 101.33 101.33C101.948 100.712 102.295 99.874 102.295 99V70C102.295 67.8159 104.065 66.0454 106.249 66.0454ZM4.74947 102.295C6.9335 102.295 8.70401 104.066 8.70401 106.25V120.75C8.70401 123.547 9.81505 126.229 11.7927 128.207C13.7704 130.184 16.4526 131.295 19.2495 131.295H33.7495C35.9335 131.295 37.704 133.066 37.704 135.25C37.704 137.434 35.9335 139.204 33.7495 139.204H19.2495C14.355 139.204 9.66103 137.26 6.20013 133.799C2.73923 130.338 0.794922 125.644 0.794922 120.75V106.25C0.794922 104.066 2.56543 102.295 4.74947 102.295ZM29.7949 106.25C29.7949 104.066 31.5654 102.295 33.7495 102.295H33.822C36.006 102.295 37.7765 104.066 37.7765 106.25C37.7765 108.434 36.006 110.204 33.822 110.204H33.7495C31.5654 110.204 29.7949 108.434 29.7949 106.25ZM135.249 102.295C137.433 102.295 139.204 104.066 139.204 106.25V120.75C139.204 125.644 137.26 130.338 133.799 133.799C130.338 137.26 125.644 139.204 120.749 139.204H106.249C104.065 139.204 102.295 137.434 102.295 135.25C102.295 133.066 104.065 131.295 106.249 131.295H120.749C123.546 131.295 126.229 130.184 128.206 128.207C130.184 126.229 131.295 123.547 131.295 120.75V106.25C131.295 104.066 133.065 102.295 135.249 102.295Z" />
</svg>