<svg width="1720" height="881" viewBox="0 0 1720 881" fill="none" xmlns="http://www.w3.org/2000/svg">
<path fill-rule="evenodd" clip-rule="evenodd" d="M356.953 614.261L464.056 564.42L646.557 321.825L607.065 293.874L456.879 500.093L356.953 614.261Z" stroke="white" stroke-opacity="0.08" stroke-miterlimit="1.5" stroke-linecap="round" stroke-linejoin="round"/>
<path fill-rule="evenodd" clip-rule="evenodd" d="M163.886 507.882L222.314 547.681L214.718 626.255L169.424 758.876L175.963 818.188L398.662 775.819L466.107 653.681L579.101 554.264L736.178 434.771L752.732 414.548L792.699 321.198L804.629 222.873L700.99 188.967L563.54 253.647L522.225 275.402L441.944 348.187L330.175 454.757L297.562 464.301L174.345 492.281L163.886 507.882Z" stroke="white" stroke-opacity="0.08" stroke-miterlimit="1.5" stroke-linecap="round" stroke-linejoin="round"/>
<path fill-rule="evenodd" clip-rule="evenodd" d="M534.791 561.363L680.541 387.733L723.232 312.974L720.69 258.511L697.626 232.342L642.801 239.504L580.345 278.189L546.981 307.441L529.116 324.609L485.641 404.463L462.372 430.687L376.283 513.91L264.366 636.359L249.627 700.544L428.43 628.508L534.791 561.363Z" stroke="white" stroke-opacity="0.08" stroke-miterlimit="1.5" stroke-linecap="round" stroke-linejoin="round"/>
<path fill-rule="evenodd" clip-rule="evenodd" d="M22.8936 534.549L136.001 604.649L118.449 718.505L79.161 773.26L27.7815 849.807L56.002 884.643L420.005 833.024L515.008 680.998L730.999 511.618L960.147 300.657L948.278 157.75L689.861 151.64L586.692 187.363L535.481 194.401L497.37 209.187L419.245 253.13L322.479 371.434L168.587 456.269L135.044 469.735L32.7259 517.788L22.8936 534.549Z" stroke="white" stroke-opacity="0.08" stroke-miterlimit="1.5" stroke-linecap="round" stroke-linejoin="round"/>
<path d="M-38.958 470.902L133.496 416.228L242.223 349.283L349.921 247.877L437.915 166.41L578.222 143.557L700.018 92.9152L732.647 -35.2302L559.269 62.8474L385.462 123.469L225.875 239.055L114.808 361.601L-63.5642 406.235L-42.3772 325.518L-3.93104 259.079L293.197 115.659L361.196 -11.2968L168.296 74.9248L72.9531 85.7863L-8.0316 104.117L-95 123.637L39.2943 -45.0745" stroke="white" stroke-opacity="0.08" stroke-miterlimit="1.5" stroke-linecap="round" stroke-linejoin="round"/>
<path d="M-43.9131 584.113L23.0636 624.167L69.7076 685.607L-8.37614 803.397L-59.8037 866.874" stroke="white" stroke-opacity="0.08" stroke-miterlimit="1.5" stroke-linecap="round" stroke-linejoin="round"/>
<path fill-rule="evenodd" clip-rule="evenodd" d="M626.378 974.991L832.092 950.724L882.325 867.723L955.286 749.423L1115.38 665.749L1060.2 611.945L1030.8 470.562L1111.92 326.718L1064.68 151.932L987.135 66.2312L948.616 115.831L1038.49 222.082L1052.85 269.436L1036.78 381.625L876.861 512.654L528.47 767.248L626.378 974.991Z" stroke="white" stroke-opacity="0.08" stroke-miterlimit="1.5" stroke-linecap="round" stroke-linejoin="round"/>
<path fill-rule="evenodd" clip-rule="evenodd" d="M841.833 804.755L913.766 684.927L911.915 572.492L887.116 558.816L705.997 704.615L618.687 817.316L678.861 925.727L804.414 879.611L841.833 804.755Z" stroke="white" stroke-opacity="0.08" stroke-miterlimit="1.5" stroke-linecap="round" stroke-linejoin="round"/>
<path fill-rule="evenodd" clip-rule="evenodd" d="M771.42 847.062L775.051 731.247L747.002 751.631L678.49 845.489L703.262 879.265L771.42 847.062Z" stroke="white" stroke-opacity="0.08" stroke-miterlimit="1.5" stroke-linecap="round" stroke-linejoin="round"/>
<path d="M1081.55 34.6996L1139.13 162.504L1157.76 319.505L1099.66 464.448L1174.6 608.26L1272.06 614.832L1330.66 586.484L1594.82 186.097L1735.95 87.9926L1820.7 -4.50879" stroke="white" stroke-opacity="0.08" stroke-miterlimit="1.5" stroke-linecap="round" stroke-linejoin="round"/>
<path d="M1146.65 20.7827L1172.28 82.9028L1204.06 309.661L1179.11 419.984L1231.05 542.864L1294.27 535.568L1395.08 289.632L1593.11 64.4001L1674.61 4.65918" stroke="white" stroke-opacity="0.08" stroke-miterlimit="1.5" stroke-linecap="round" stroke-linejoin="round"/>
<path d="M1236.52 16.2012L1280.43 250.592L1278.21 395.375L1378.51 142.14L1562.52 -10.6157" stroke="white" stroke-opacity="0.08" stroke-miterlimit="1.5" stroke-linecap="round" stroke-linejoin="round"/>
<path d="M1305.55 8.051L1317.85 41.8287L1342.28 128.391L1419.68 -4.67676" stroke="white" stroke-opacity="0.08" stroke-miterlimit="1.5" stroke-linecap="round" stroke-linejoin="round"/>
<path d="M987.748 982.972L1021.4 863.818L1165.1 734.661L1236.86 679.159L1515.03 775.055L1616.34 904.557L1657.52 984.501L1648.98 985.01" stroke="white" stroke-opacity="0.08" stroke-miterlimit="1.5" stroke-linecap="round" stroke-linejoin="round"/>
<path d="M1092.99 978.557L1174.84 803.567L1456.42 789.313L1543.73 907.104L1591.74 980.765" stroke="white" stroke-opacity="0.08" stroke-miterlimit="1.5" stroke-linecap="round" stroke-linejoin="round"/>
<path d="M1140.33 970.412L1243.87 824.443L1363.81 815.448L1485.29 879.611L1519.63 980.425" stroke="white" stroke-opacity="0.08" stroke-miterlimit="1.5" stroke-linecap="round" stroke-linejoin="round"/>
<path d="M1876.22 4.15015L1792.16 146.381L1659.06 289.973L1562.69 396.391L1505.97 465.467L1450.09 585.465L1575.34 768.097L1721.25 912.872L1817.45 990.099" stroke="white" stroke-opacity="0.08" stroke-miterlimit="1.5" stroke-linecap="round" stroke-linejoin="round"/>
<path d="M1925.43 91.7297L1816.76 246.86L1633.78 428.979L1611.73 678.48L1669.65 763.852L1917.06 868.742L1969 876.378" stroke="white" stroke-opacity="0.08" stroke-miterlimit="1.5" stroke-linecap="round" stroke-linejoin="round"/>
<path fill-rule="evenodd" clip-rule="evenodd" d="M1860.66 719.858L1883.4 435.701L1857.97 376.79L1842.23 334.26L1750.64 437.125L1688.45 512.144L1711.51 660.655L1860.66 719.858Z" stroke="white" stroke-opacity="0.08" stroke-miterlimit="1.5" stroke-linecap="round" stroke-linejoin="round"/>
</svg>
