<svg width="40" height="22" viewBox="0 0 40 22" fill="none" xmlns="http://www.w3.org/2000/svg">
<path d="M3.73633 10.6378L4.44343 11.3449L11.5145 18.416L12.2216 17.7089L5.15054 10.6378L12.2216 3.56673L11.5145 2.85962L4.44343 9.93069L3.73633 10.6378Z" fill="#FF301A"/>
<path d="M12.9298 2.85962L12.2227 3.56673L19.2937 10.6378L12.2227 17.7089L12.9298 18.416L20.0008 11.3449L27.0719 18.416L27.779 17.7089L20.7079 10.6378L27.779 3.56673L27.0719 2.85962L20.0008 9.93069L12.9298 2.85962Z" fill="#FF301A"/>
<path d="M28.4845 2.85962L27.7773 3.56673L34.8484 10.6378L27.7773 17.7089L28.4845 18.416L35.5555 11.3449L36.2626 10.6378L35.5555 9.93069L28.4845 2.85962Z" fill="#FF301A"/>
</svg>
