<svg viewBox="0 0 522 35" xmlns="http://www.w3.org/2000/svg">
<path fill-rule="evenodd" clip-rule="evenodd" d="M231.692 33.0269C233.853 33.8726 236.218 34.2955 238.787 34.2955C241.324 34.2955 243.658 33.8726 245.788 33.0269C247.949 32.1811 249.829 31.0064 251.426 29.5028C253.024 27.9992 254.261 26.2136 255.139 24.1462C256.016 22.0787 256.454 19.8233 256.454 17.3799C256.454 14.9366 256.016 12.6968 255.139 10.6607C254.261 8.59323 253.024 6.8077 251.426 5.30409C249.829 3.76916 247.949 2.5788 245.788 1.73302C243.658 0.887245 241.308 0.464355 238.74 0.464355C236.202 0.464355 233.853 0.887245 231.692 1.73302C229.53 2.5788 227.651 3.76916 226.053 5.30409C224.456 6.8077 223.218 8.59323 222.341 10.6607C221.464 12.6968 221.025 14.9366 221.025 17.3799C221.025 19.8233 221.464 22.0787 222.341 24.1462C223.218 26.1823 224.456 27.9678 226.053 29.5028C227.651 31.0064 229.53 32.1811 231.692 33.0269ZM243.345 28.0931C241.935 28.657 240.4 28.9389 238.74 28.9389C237.08 28.9389 235.545 28.657 234.135 28.0931C232.725 27.5293 231.504 26.7305 230.47 25.6968C229.436 24.6317 228.622 23.3944 228.027 21.9847C227.463 20.5751 227.181 19.0402 227.181 17.3799C227.181 15.6884 227.463 14.1534 228.027 12.7751C228.622 11.3655 229.436 10.1438 230.47 9.1101C231.535 8.04504 232.757 7.23059 234.135 6.66674C235.545 6.10288 237.08 5.82096 238.74 5.82096C240.4 5.82096 241.935 6.10288 243.345 6.66674C244.754 7.23059 245.976 8.04504 247.01 9.1101C248.043 10.1438 248.842 11.3655 249.406 12.7751C250.001 14.1534 250.299 15.6884 250.299 17.3799C250.299 19.0715 250.001 20.6221 249.406 22.0317C248.842 23.41 248.043 24.6317 247.01 25.6968C245.976 26.7305 244.754 27.5293 243.345 28.0931Z" />
<path d="M199.932 21.2329V33.8256H193.824V0.934232H217.835V6.0559H199.932V16.0643H215.814V21.2329H199.932Z" />
<path d="M277.072 34.2955C272.561 34.2955 269.022 33.0269 266.453 30.4895C263.916 27.9522 262.647 24.2871 262.647 19.4944V0.934232H268.755V19.2594C268.755 22.6426 269.476 25.1016 270.917 26.6365C272.389 28.1715 274.457 28.9389 277.119 28.9389C279.782 28.9389 281.834 28.1715 283.275 26.6365C284.716 25.1016 285.436 22.6426 285.436 19.2594V0.934232H291.45V19.4944C291.45 24.2871 290.166 27.9522 287.597 30.4895C285.06 33.0269 281.552 34.2955 277.072 34.2955Z" />
<path d="M305.033 0.934232H300.005V33.8256H306.067V11.5569L324.204 33.8256H329.232V0.934232H323.17V23.203L305.033 0.934232Z" />
<path fill-rule="evenodd" clip-rule="evenodd" d="M338.045 0.934232H352.423C355.994 0.934232 359.127 1.62339 361.821 3.00169C364.515 4.38 366.614 6.29083 368.117 8.7342C369.621 11.1776 370.373 14.0595 370.373 17.3799C370.373 20.6691 369.621 23.551 368.117 26.0257C366.614 28.469 364.515 30.3799 361.821 31.7582C359.127 33.1365 355.994 33.8256 352.423 33.8256H338.045V0.934232ZM344.153 28.657H352.141C354.616 28.657 356.746 28.1871 358.532 27.2474C360.349 26.3076 361.743 24.992 362.714 23.3004C363.716 21.6088 364.217 19.6353 364.217 17.3799C364.217 15.0932 363.716 13.1197 362.714 11.4595C361.743 9.76793 360.349 8.45227 358.532 7.51252C356.746 6.57276 354.616 6.10288 352.141 6.10288H344.153V28.657Z" />
<path fill-rule="evenodd" clip-rule="evenodd" d="M392.57 0.934232H386.555L371.754 33.8256H378.051L381.308 26.2136H397.759L401.028 33.8256H407.418L392.57 0.934232ZM395.7 21.4209L389.518 7.02622L383.359 21.4209H395.7Z" />
<path d="M416.621 33.8256V6.10288H405.72V0.934232H433.631V6.10288H422.73V33.8256H416.621Z" />
<path d="M444.324 0.934232H438.215V33.8256H444.324V0.934232Z" />
<path fill-rule="evenodd" clip-rule="evenodd" d="M468.632 34.2955C466.063 34.2955 463.698 33.8726 461.537 33.0269C459.375 32.1811 457.496 31.0064 455.898 29.5028C454.301 27.9678 453.063 26.1823 452.186 24.1462C451.309 22.0787 450.871 19.8233 450.871 17.3799C450.871 14.9366 451.309 12.6968 452.186 10.6607C453.063 8.59323 454.301 6.8077 455.898 5.30409C457.496 3.76916 459.375 2.5788 461.537 1.73302C463.698 0.887245 466.048 0.464355 468.585 0.464355C471.154 0.464355 473.503 0.887245 475.633 1.73302C477.795 2.5788 479.674 3.76916 481.272 5.30409C482.869 6.8077 484.107 8.59323 484.984 10.6607C485.861 12.6968 486.299 14.9366 486.299 17.3799C486.299 19.8233 485.861 22.0787 484.984 24.1462C484.107 26.2136 482.869 27.9992 481.272 29.5028C479.674 31.0064 477.795 32.1811 475.633 33.0269C473.503 33.8726 471.169 34.2955 468.632 34.2955ZM468.585 28.9389C470.245 28.9389 471.78 28.657 473.19 28.0931C474.6 27.5293 475.821 26.7305 476.855 25.6968C477.889 24.6317 478.687 23.41 479.251 22.0317C479.846 20.6221 480.144 19.0715 480.144 17.3799C480.144 15.6884 479.846 14.1534 479.251 12.7751C478.687 11.3655 477.889 10.1438 476.855 9.1101C475.821 8.04504 474.6 7.23059 473.19 6.66674C471.78 6.10288 470.245 5.82096 468.585 5.82096C466.925 5.82096 465.39 6.10288 463.98 6.66674C462.602 7.23059 461.38 8.04504 460.315 9.1101C459.281 10.1438 458.467 11.3655 457.872 12.7751C457.308 14.1534 457.026 15.6884 457.026 17.3799C457.026 19.0402 457.308 20.5751 457.872 21.9847C458.467 23.3944 459.281 24.6317 460.315 25.6968C461.349 26.7305 462.571 27.5293 463.98 28.0931C465.39 28.657 466.925 28.9389 468.585 28.9389Z" />
<path d="M497.802 0.934232H492.774V33.8256H498.836V11.5569L516.973 33.8256H522.001V0.934232H515.939V23.203L497.802 0.934232Z" />
<path fill-rule="evenodd" clip-rule="evenodd" d="M59.808 28.576C53.7834 28.576 50.0918 26.2348 49.3649 22.3038H75.7032V20.8885C75.7032 13.3351 70.0103 8.7183 59.808 8.7183C48.6947 8.7183 43.3357 13.1387 43.3357 20.5861C43.3357 28.0366 49.6057 32.7127 59.808 32.7127C67.9544 32.7127 73.4088 29.8105 75.4443 24.8507H68.6019C66.9253 27.223 64.0788 28.576 59.808 28.576ZM59.808 12.855C63.0088 12.855 68.8358 13.7061 69.4969 18.1484H49.6034C50.6825 14.8097 53.931 12.855 59.808 12.855Z" />
<path d="M120.92 32.0176V16.5772C122.805 14.1893 127.385 13.0078 131.095 13.0078C134.461 13.0078 138.907 13.8183 138.907 17.8834V32.0176H144.752V17.1134C144.752 10.9971 138.024 8.78375 132.839 8.78375C128.723 8.78375 124.168 9.40097 120.92 11.8076V0.974704H115.075V32.0176H120.92Z" />
<path d="M5.84538 32.0331V15.6669C6.89719 15.0122 9.77093 13.3351 11.7428 13.3351C14.1963 13.3351 16.9655 14.579 16.9655 18.298V32.0331H22.8106V18.298C22.8106 17.6465 22.772 17.0385 22.6993 16.4649C23.6307 15.2117 26.3409 13.3351 28.6876 13.3351C31.1547 13.3351 34.1375 14.579 34.1375 18.298V32.0331H39.9826V18.298C39.9826 10.9597 34.7736 8.79935 30.5368 8.79935C28.0561 8.79935 24.5599 9.56933 21.4794 12.7615C19.712 9.80313 16.4793 8.79935 13.592 8.79935C11.0908 8.79935 8.52148 9.60668 5.84538 11.7701V9.3573H0V32.0331H5.84538Z" />
<path d="M155.514 8.19764L166.291 18.9994L155.514 29.8012L159.485 33.7851L170.264 22.9803L181.041 33.7851L185.014 29.8012L174.235 18.9994L185.014 8.19764L181.041 4.21675L170.264 15.0185L159.485 4.21675L155.514 8.19764Z" />
<path d="M95.3264 28.5292C87.3118 28.5292 85.9192 26.2192 85.4217 24.8445H78.8587C80.0377 29.0841 83.1318 32.6972 95.2083 32.6598C109.865 32.613 111.172 28.311 111.172 24.9131C111.172 20.8885 107.273 19.096 100.638 18.5193C98.4319 18.326 94.111 18.0174 91.862 17.899C87.3163 17.6527 85.3399 17.1071 85.3399 15.6825C85.3399 13.0826 92.5504 12.8301 94.8039 12.8301C97.0552 12.8301 103.498 13.0296 103.748 15.9631H110.054C109.741 12.6088 105.699 8.70581 94.8448 8.70581C79.3857 8.70581 79.2131 14.0459 79.2131 15.9412C79.2131 17.8366 79.5811 21.5058 91.7144 22.176C95.8149 22.4004 98.6204 22.6155 100.565 22.8057C104.318 23.1736 104.822 24.9006 104.822 25.6082C104.822 26.9019 103.555 28.5292 95.3264 28.5292Z" />
</svg>