<svg width="263" height="44" viewBox="0 0 263 44" fill="none" xmlns="http://www.w3.org/2000/svg">
<path fill-rule="evenodd" clip-rule="evenodd" d="M14.6667 2.66663C15.219 2.66663 15.6667 3.11434 15.6667 3.66663V6.33329H28.3333V3.66663C28.3333 3.11434 28.781 2.66663 29.3333 2.66663C29.8856 2.66663 30.3333 3.11434 30.3333 3.66663V6.33329H34.8333C37.4107 6.33329 39.5 8.42263 39.5 11V36.6666C39.5 39.244 37.4107 41.3333 34.8333 41.3333H9.16667C6.58934 41.3333 4.5 39.244 4.5 36.6666V11C4.5 8.42263 6.58934 6.33329 9.16667 6.33329H13.6667V3.66663C13.6667 3.11434 14.1144 2.66663 14.6667 2.66663ZM9.16667 8.33329C7.69391 8.33329 6.5 9.5272 6.5 11V36.6666C6.5 38.1394 7.69391 39.3333 9.16667 39.3333H34.8333C36.3061 39.3333 37.5 38.1394 37.5 36.6666V11C37.5 9.5272 36.3061 8.33329 34.8333 8.33329H9.16667ZM22 15.6666C20.5272 15.6666 19.3333 16.8605 19.3333 18.3333C19.3333 19.8061 20.5272 21 22 21C23.4728 21 24.6667 19.8061 24.6667 18.3333C24.6667 16.8605 23.4728 15.6666 22 15.6666ZM17.3333 18.3333C17.3333 15.756 19.4227 13.6666 22 13.6666C24.5773 13.6666 26.6667 15.756 26.6667 18.3333C26.6667 20.9106 24.5773 23 22 23C19.4227 23 17.3333 20.9106 17.3333 18.3333ZM13.2002 29.7001C14.0753 28.825 15.2623 28.3333 16.5 28.3333H27.5C28.7377 28.3333 29.9247 28.825 30.7998 29.7001C31.675 30.5753 32.1667 31.7623 32.1667 33C32.1667 33.5522 31.719 34 31.1667 34C30.6144 34 30.1667 33.5522 30.1667 33C30.1667 32.2927 29.8857 31.6144 29.3856 31.1143C28.8855 30.6142 28.2072 30.3333 27.5 30.3333H16.5C15.7928 30.3333 15.1145 30.6142 14.6144 31.1143C14.1143 31.6144 13.8333 32.2927 13.8333 33C13.8333 33.5522 13.3856 34 12.8333 34C12.281 34 11.8333 33.5522 11.8333 33C11.8333 31.7623 12.325 30.5753 13.2002 29.7001Z" fill="#1C1D1E"/>
<path fill-rule="evenodd" clip-rule="evenodd" d="M87.6667 2.66663C88.219 2.66663 88.6667 3.11434 88.6667 3.66663V6.33329H101.333V3.66663C101.333 3.11434 101.781 2.66663 102.333 2.66663C102.886 2.66663 103.333 3.11434 103.333 3.66663V6.33329H107.833C110.411 6.33329 112.5 8.42263 112.5 11V36.6666C112.5 39.244 110.411 41.3333 107.833 41.3333H82.1667C79.5893 41.3333 77.5 39.244 77.5 36.6666V11C77.5 8.42263 79.5893 6.33329 82.1667 6.33329H86.6667V3.66663C86.6667 3.11434 87.1144 2.66663 87.6667 2.66663ZM82.1667 8.33329C80.6939 8.33329 79.5 9.5272 79.5 11V36.6666C79.5 38.1394 80.6939 39.3333 82.1667 39.3333H107.833C109.306 39.3333 110.5 38.1394 110.5 36.6666V11C110.5 9.5272 109.306 8.33329 107.833 8.33329H82.1667ZM95 15.6666C93.5272 15.6666 92.3333 16.8605 92.3333 18.3333C92.3333 19.8061 93.5272 21 95 21C96.4728 21 97.6667 19.8061 97.6667 18.3333C97.6667 16.8605 96.4728 15.6666 95 15.6666ZM90.3333 18.3333C90.3333 15.756 92.4227 13.6666 95 13.6666C97.5773 13.6666 99.6667 15.756 99.6667 18.3333C99.6667 20.9106 97.5773 23 95 23C92.4227 23 90.3333 20.9106 90.3333 18.3333ZM86.2002 29.7001C87.0753 28.825 88.2623 28.3333 89.5 28.3333H100.5C101.738 28.3333 102.925 28.825 103.8 29.7001C104.675 30.5753 105.167 31.7623 105.167 33C105.167 33.5522 104.719 34 104.167 34C103.614 34 103.167 33.5522 103.167 33C103.167 32.2927 102.886 31.6144 102.386 31.1143C101.886 30.6142 101.207 30.3333 100.5 30.3333H89.5C88.7928 30.3333 88.1145 30.6142 87.6144 31.1143C87.1143 31.6144 86.8333 32.2927 86.8333 33C86.8333 33.5522 86.3856 34 85.8333 34C85.281 34 84.8333 33.5522 84.8333 33C84.8333 31.7623 85.325 30.5753 86.2002 29.7001Z" fill="#B73312"/>
<path fill-rule="evenodd" clip-rule="evenodd" d="M160.667 2.66663C161.219 2.66663 161.667 3.11434 161.667 3.66663V6.33329H174.333V3.66663C174.333 3.11434 174.781 2.66663 175.333 2.66663C175.886 2.66663 176.333 3.11434 176.333 3.66663V6.33329H180.833C183.411 6.33329 185.5 8.42263 185.5 11V36.6666C185.5 39.244 183.411 41.3333 180.833 41.3333H155.167C152.589 41.3333 150.5 39.244 150.5 36.6666V11C150.5 8.42263 152.589 6.33329 155.167 6.33329H159.667V3.66663C159.667 3.11434 160.114 2.66663 160.667 2.66663ZM155.167 8.33329C153.694 8.33329 152.5 9.5272 152.5 11V36.6666C152.5 38.1394 153.694 39.3333 155.167 39.3333H180.833C182.306 39.3333 183.5 38.1394 183.5 36.6666V11C183.5 9.5272 182.306 8.33329 180.833 8.33329H155.167ZM168 15.6666C166.527 15.6666 165.333 16.8605 165.333 18.3333C165.333 19.8061 166.527 21 168 21C169.473 21 170.667 19.8061 170.667 18.3333C170.667 16.8605 169.473 15.6666 168 15.6666ZM163.333 18.3333C163.333 15.756 165.423 13.6666 168 13.6666C170.577 13.6666 172.667 15.756 172.667 18.3333C172.667 20.9106 170.577 23 168 23C165.423 23 163.333 20.9106 163.333 18.3333ZM159.2 29.7001C160.075 28.825 161.262 28.3333 162.5 28.3333H173.5C174.738 28.3333 175.925 28.825 176.8 29.7001C177.675 30.5753 178.167 31.7623 178.167 33C178.167 33.5522 177.719 34 177.167 34C176.614 34 176.167 33.5522 176.167 33C176.167 32.2927 175.886 31.6144 175.386 31.1143C174.886 30.6142 174.207 30.3333 173.5 30.3333H162.5C161.793 30.3333 161.114 30.6142 160.614 31.1143C160.114 31.6144 159.833 32.2927 159.833 33C159.833 33.5522 159.386 34 158.833 34C158.281 34 157.833 33.5522 157.833 33C157.833 31.7623 158.325 30.5753 159.2 29.7001Z" fill="#FF301A"/>
<path fill-rule="evenodd" clip-rule="evenodd" d="M233.667 2.66663C234.219 2.66663 234.667 3.11434 234.667 3.66663V6.33329H247.333V3.66663C247.333 3.11434 247.781 2.66663 248.333 2.66663C248.886 2.66663 249.333 3.11434 249.333 3.66663V6.33329H253.833C256.411 6.33329 258.5 8.42263 258.5 11V36.6666C258.5 39.244 256.411 41.3333 253.833 41.3333H228.167C225.589 41.3333 223.5 39.244 223.5 36.6666V11C223.5 8.42263 225.589 6.33329 228.167 6.33329H232.667V3.66663C232.667 3.11434 233.114 2.66663 233.667 2.66663ZM228.167 8.33329C226.694 8.33329 225.5 9.5272 225.5 11V36.6666C225.5 38.1394 226.694 39.3333 228.167 39.3333H253.833C255.306 39.3333 256.5 38.1394 256.5 36.6666V11C256.5 9.5272 255.306 8.33329 253.833 8.33329H228.167ZM241 15.6666C239.527 15.6666 238.333 16.8605 238.333 18.3333C238.333 19.8061 239.527 21 241 21C242.473 21 243.667 19.8061 243.667 18.3333C243.667 16.8605 242.473 15.6666 241 15.6666ZM236.333 18.3333C236.333 15.756 238.423 13.6666 241 13.6666C243.577 13.6666 245.667 15.756 245.667 18.3333C245.667 20.9106 243.577 23 241 23C238.423 23 236.333 20.9106 236.333 18.3333ZM232.2 29.7001C233.075 28.825 234.262 28.3333 235.5 28.3333H246.5C247.738 28.3333 248.925 28.825 249.8 29.7001C250.675 30.5753 251.167 31.7623 251.167 33C251.167 33.5522 250.719 34 250.167 34C249.614 34 249.167 33.5522 249.167 33C249.167 32.2927 248.886 31.6144 248.386 31.1143C247.886 30.6142 247.207 30.3333 246.5 30.3333H235.5C234.793 30.3333 234.114 30.6142 233.614 31.1143C233.114 31.6144 232.833 32.2927 232.833 33C232.833 33.5522 232.386 34 231.833 34C231.281 34 230.833 33.5522 230.833 33C230.833 31.7623 231.325 30.5753 232.2 29.7001Z" fill="black" fill-opacity="0.6"/>
</svg>
